<svg width="100pt" fill="gray" height="100pt" viewBox="0 0 100 100" xmlns="http://www.w3.org/2000/svg">
  <path d="M76.672 19.141H23.328c-.36328 0-.69922.19531-.875.51562-.17578.31641-.16406.70703.027344 1.0156l20 31.762v-.003906c.5.79687.76953 1.7188.76953 2.6602v23.77c0 .53125.21094 1.0391.58594 1.4141s.88281.58594 1.4141.58594h9.6016c.52734 0 1.0391-.21094 1.4141-.58594s.58594-.88281.58594-1.4141v-23.77c0-.94141.26563-1.8633.76953-2.6602l20-31.762v.003906c.19141-.30859.20312-.69922.023437-1.0156-.17578-.32031-.51172-.51562-.875-.51562z"/>
</svg>
