<svg width="502" height="176" xmlns="http://www.w3.org/2000/svg"><path d="M.796 161.066c-.423-2.399.11-3.73 1.599-3.992.91-.16 3.756 1.47 8.54 4.892 1.833 1.211 3.98 2.262 6.44 3.15 2.46.888 4.765 1.143 6.916.764 2.73-.482 4.725-3.798 5.986-9.948 1.261-6.15 2.617-16.966 4.067-32.447 1.45-15.481 3.058-25.467 4.825-29.958-3.538 1.22-8.457 3.197-14.756 5.928-6.3 2.732-10.11 4.214-11.434 4.447-3.061.54-4.774-.224-5.139-2.292-.496-2.813 4.15-6.575 13.94-11.286 9.788-4.711 17.081-7.49 21.88-8.336 1.488-.263 2.85-.162 4.083.303 1.233.465 1.963 1.339 2.19 2.62.225 1.283.058 3.722-.502 7.318-2.488 15.878-4.045 26.643-4.668 32.297-1.92 20.554-3.776 33.974-5.568 40.26-1.791 6.288-5.479 9.923-11.063 10.908-5.584.984-11.39-.38-17.418-4.094-6.029-3.713-9.335-7.225-9.918-10.534zm122.732-46.973c.277 1.571-3.042 4.033-9.957 7.385 2.179 8.486 3.8 15.749 4.865 21.788 1.838 10.423 1.433 15.868-1.214 16.335-1.406.248-2.676-.424-3.81-2.015-1.133-1.592-2.327-4.494-3.582-8.708-1.98-7.84-3.971-15.506-5.975-23-3.547 1.649-6.782 3.136-9.704 4.462-2.923 1.325-7.333 3.404-13.23 6.235-3.926 20.31-6.55 30.582-7.873 30.815-1.324.233-2.893-.322-4.708-1.665-1.815-1.343-2.883-2.925-3.204-4.745-.145-.827 1.177-7.116 3.966-18.867l-.868.153c-1.655.292-3.218.013-4.69-.836-1.471-.85-2.35-2.08-2.634-3.694-.284-1.613 3.435-4.465 11.158-8.556.798-3.212 1.4-6.09 1.804-8.635 1.07-5.05 2.58-11.97 4.528-20.757 1.948-8.788 3.176-14.4 3.685-16.835.508-2.435 1.758-4.66 3.749-6.674 1.99-2.015 4.06-3.211 6.212-3.59 2.564-.453 5.582 3.237 9.052 11.07 3.471 7.832 6.892 17.677 10.262 29.536 2.273-.656 4.278-1.138 6.015-1.444 3.722-.656 5.773.09 6.153 2.242zm-40.117 9.76c5.596-2.607 11.567-5.025 17.913-7.253-3.984-13.883-7.306-24.258-9.966-31.124-2.22 9.177-4.87 21.97-7.947 38.377zm61.421-55.099c-.248-1.406-.233-2.41.045-3.014.277-.604.933-.996 1.967-1.179 1.034-.182 3.03.617 5.988 2.399 2.959 1.781 4.674 3.526 5.145 5.234.856 2.92 3.358 7.916 7.505 14.99 4.148 7.073 8.727 14.176 13.738 21.31 3.67-6.276 8.221-14.563 13.656-24.861 5.434-10.299 9.512-17.65 12.232-22.053 2.721-4.403 4.826-6.736 6.315-6.998 1.489-.263 3.207.287 5.153 1.65 1.946 1.363 3.05 2.789 3.313 4.278.262 1.489.396 3.214.4 5.175.005 1.96-.112 4.561-.35 7.802-.24 3.24-.469 6.053-.688 8.438-.22 2.384-.61 6.1-1.17 11.145-.56 5.046-.96 9.062-1.202 12.047a644.08 644.08 0 0 0-.768 10.883c-.27 4.27-.486 7.762-.647 10.477a297.624 297.624 0 0 1-.578 7.97c-.395 5.017-1.15 7.624-2.267 7.821-1.117.197-2.388-.602-3.814-2.398-1.425-1.796-2.433-4.369-3.024-7.72-.59-3.35-.517-11.274.222-23.772.74-12.498 1.968-23.547 3.687-33.148-11.866 21.71-19.229 34.737-22.088 39.08-2.86 4.342-5.427 6.714-7.702 7.115-2.275.401-4.63-.506-7.068-2.72-3.737-3.776-9.543-13.244-17.42-28.403.126 8.934-.116 16.632-.725 23.094-.61 6.462-1.004 10.754-1.184 12.875a368.51 368.51 0 0 1-.479 5.267c-.139 1.389-.3 3.016-.482 4.883a124.033 124.033 0 0 1-.527 4.634 241.245 241.245 0 0 0-.511 3.993 86.367 86.367 0 0 1-.475 3.474 31.588 31.588 0 0 1-.515 2.522c-.414 1.523-.786 2.313-1.117 2.372-.993.175-2.423-.682-4.291-2.57-1.869-1.888-2.978-3.825-3.328-5.81-.35-1.986.305-13.872 1.965-35.66 1.66-21.787 2.023-35.327 1.09-40.622zm118.156 1.812c2.813-.496 5.733.589 8.762 3.253 3.029 2.665 4.747 5.155 5.156 7.471.248 1.407-.29 2.227-1.614 2.46-.91.16-2.444-.315-4.602-1.428-2.157-1.112-4.23-1.493-6.214-1.143-1.986.35-4.904 2.059-8.756 5.127-3.852 3.067-5.552 5.883-5.1 8.447.336 1.903 4.717 4.5 13.145 7.79 3.216 1.31 6.254 3.183 9.115 5.622 2.861 2.438 4.58 5.29 5.156 8.558.576 3.268-1.117 6.85-5.078 10.748-3.962 3.897-8.941 6.374-14.939 7.431-5.997 1.058-11.547.544-16.648-1.542-5.102-2.086-7.879-4.41-8.331-6.975-.19-1.076-.07-1.971.358-2.686.428-.715 1.056-1.146 1.883-1.292.827-.146 2.08.188 3.759 1 5.036 2.44 9.974 3.232 14.813 2.378 4.84-.853 8.236-2.028 10.19-3.524 1.954-1.496 2.767-3.174 2.438-5.035-.328-1.862-1.877-3.636-4.648-5.322a50.215 50.215 0 0 0-8.875-4.257 38.817 38.817 0 0 1-8.952-4.69c-2.822-1.976-4.452-4.205-4.89-6.687-.772-4.384 1.875-9.564 7.944-15.538 6.069-5.975 11.378-9.363 15.928-10.166zm39.934 43.625c.277 1.571 1.326 2.197 3.146 1.876 3.143-.554 6.812-2.118 11.007-4.692 4.195-2.573 6.54-3.904 7.037-3.991 1.489-.263 2.372.392 2.65 1.963.422 2.4-1.55 5.605-5.918 9.616-4.368 4.011-8.558 6.37-12.57 7.078-4.012.708-7.535.199-10.569-1.527-3.033-1.725-4.754-3.746-5.163-6.062-.408-2.317-.433-5.361-.075-9.135s.946-8.782 1.765-15.025c.818-6.243 1.422-11.403 1.812-15.48-3.728 1.595-6.253 2.51-7.577 2.743-1.323.233-2.747-.22-4.27-1.358-1.522-1.14-2.393-2.33-2.612-3.57-.35-1.985 4.691-4.836 15.125-8.552.278-7.129-.05-13.34-.983-18.635-.438-2.481.17-3.868 1.825-4.16 1.407-.248 3.3.335 5.682 1.749 2.382 1.414 3.77 3.238 4.164 5.471.393 2.234.383 6.287-.031 12.16 4.642-1.245 8.37-2.115 11.182-2.611 4.964-.875 7.635-.238 8.014 1.913.219 1.241-.943 2.512-3.486 3.813-2.542 1.302-7.962 3.58-16.26 6.834-.584 6.841-1.46 14.694-2.626 23.557-1.167 8.863-1.59 14.205-1.269 16.025zm58.466-60.975c3.723-.657 7.487.62 11.295 3.83 3.807 3.21 5.977 6.324 6.51 9.343.531 3.02.04 6.283-1.473 9.792 1.211 1.065 1.897 2.053 2.058 2.963.408 2.317.591 6.378.55 12.186-.043 5.808-.014 9.598.085 11.372.1 1.773.158 3.192.175 4.255a36.496 36.496 0 0 1-.085 3.15c.034 2.126-.528 3.291-1.686 3.496-1.49.262-2.939-.826-4.35-3.264-1.41-2.438-2.563-5.71-3.458-9.817-5.714 10.646-11.715 16.523-18.002 17.632-3.805.67-7.837-.303-12.094-2.922-4.257-2.618-6.692-5.665-7.305-9.139-.875-4.963-.138-11.427 2.21-19.39a73.8 73.8 0 0 1 10.7-22.037c4.785-6.73 9.741-10.546 14.87-11.45zm9.559 20.832c-1.357-7.693-3.565-11.27-6.626-10.73-3.226.569-6.586 3.528-10.078 8.878-3.492 5.35-6.216 11.182-8.173 17.498-1.957 6.316-2.637 11.17-2.039 14.561.248 1.406 1.028 2.442 2.34 3.106 1.31.665 2.752.858 4.324.581 3.888-.686 7.809-4.085 11.763-10.199 3.955-6.113 6.22-13.102 6.795-20.965.03-1.285.601-2.153 1.716-2.606l-.022-.124zm46.46 32.75c-4.797.846-9.638-.24-14.52-3.261-4.883-3.02-7.78-7.115-8.692-12.285-.911-5.17-.228-11.454 2.05-18.85 2.279-7.396 5.745-13.978 10.4-19.746 4.656-5.768 9.589-9.111 14.8-10.03 3.392-.598 6.64.407 9.744 3.016 3.104 2.608 4.86 5.07 5.27 7.387.116.662.007 1.257-.326 1.785s-.893.86-1.679 1c-.786.138-2.303-.362-4.55-1.501-2.248-1.14-4.158-1.57-5.73-1.293-4.467.788-8.986 5.636-13.556 14.545-4.57 8.91-6.338 16.3-5.302 22.174.452 2.564 1.616 4.449 3.491 5.653 1.876 1.205 4.613 1.49 8.212.855 3.598-.634 6.83-1.652 9.697-3.053 2.866-1.401 5.05-2.682 6.551-3.842 1.501-1.16 2.707-1.82 3.617-1.981 1.572-.277 2.496.37 2.773 1.942.423 2.399-1.959 5.698-7.147 9.896-5.188 4.199-10.222 6.728-15.102 7.589zm80.416-70.73c.131.744-2.864 5.281-8.987 13.61-2.263 3.13-4.215 6.693-5.855 10.693-1.64 4-2.198 7.488-1.673 10.467.525 2.978 1.9 5.571 4.123 7.78 2.223 2.21 4.503 3.77 6.838 4.68 2.336.91 4.502 1.83 6.5 2.757 1.997.927 3.069 1.804 3.214 2.631.365 2.069-1.086 3.39-4.354 3.967-3.268.576-7.48-.579-12.638-3.465-5.157-2.887-8.675-6.51-10.552-10.87a18.391 18.391 0 0 1-1.409-2.183c-4.283 8.603-7.427 14.595-9.433 17.977-2.005 3.381-3.628 5.181-4.869 5.4-1.24.219-2.777-.512-4.609-2.194-1.832-1.681-2.86-3.163-3.087-4.445-.226-1.283.178-6.855 1.21-16.719 1.034-9.863 1.735-21.608 2.104-35.235.37-13.627-.358-25.611-2.181-35.952-.233-1.323-.208-2.266.077-2.828.285-.562 1.047-.952 2.288-1.171 1.241-.219 2.987.731 5.237 2.85 2.25 2.12 3.58 4.338 3.988 6.655 1.298 7.362 1.625 17.924.98 31.685-.643 13.76-1.983 26.962-4.02 39.603 7-14.967 13.187-27.167 18.56-36.602 5.373-9.434 8.867-14.293 10.48-14.578 1.613-.284 3.303.228 5.069 1.537 1.766 1.31 2.766 2.626 2.999 3.95z" fill="#292929" fill-rule="evenodd"/></svg>