<svg width="1200" height="624" viewBox="0 0 1200 624" fill="none" xmlns="http://www.w3.org/2000/svg">
<g clip-path="url(#clip0)">
<rect width="1200" height="623" transform="translate(0 0.304688)" fill="#0A0F23"/>
<circle r="98.731" transform="matrix(-1 0 0 1 48.7776 585.636)" stroke="url(#paint0_linear)" stroke-width="31.141"/>
<rect x="1117" y="528.305" width="116" height="25" fill="url(#paint1_linear)"/>
<g filter="url(#filter0_d)">
<path d="M422 446.222C422 423.026 440.804 404.222 464 404.222H788C811.196 404.222 830 423.026 830 446.222C830 469.418 811.196 488.222 788 488.222H464C440.804 488.222 422 469.418 422 446.222Z" fill="white"/>
<path d="M497.321 441.172V436.192H478.841V441.172H484.931V457.222H491.201V441.172H497.321ZM511.613 453.862L512.843 457.222H519.503L510.833 436.192H504.413L495.443 457.222H501.863L503.123 453.862H511.613ZM509.963 449.302H504.863L507.443 442.432L509.963 449.302ZM535.036 457.222H542.506L534.406 444.742L542.026 436.192H534.826L527.776 444.292V436.192H521.536V457.222H527.776V452.182L530.146 449.542L535.036 457.222ZM562.047 440.992V436.192H544.857V457.222H562.347V452.422H551.097V449.092H561.027V444.292H551.097V440.992H562.047ZM589.785 441.172V436.192H571.305V441.172H577.395V457.222H583.665V441.172H589.785ZM612.182 457.222V436.192H605.942V444.562H598.472V436.192H592.232V457.222H598.472V449.392H605.942V457.222H612.182ZM633.417 440.992V436.192H616.227V457.222H633.717V452.422H622.467V449.092H632.397V444.292H622.467V440.992H633.417ZM652.905 435.922C647.655 435.922 644.205 438.502 644.205 442.552C644.205 449.962 655.185 447.952 655.185 451.132C655.185 452.092 654.345 452.542 653.025 452.542C650.865 452.542 647.355 451.162 645.195 449.332L642.855 454.072C645.495 456.142 649.395 457.402 652.965 457.402C657.675 457.402 661.635 455.272 661.635 450.802C661.635 443.212 650.655 445.042 650.655 441.952C650.655 441.172 651.345 440.812 652.395 440.812C654.165 440.812 657.225 441.922 659.385 443.152L661.695 438.352C659.415 436.882 656.115 435.922 652.905 435.922ZM683.862 436.192H677.622V448.342C677.622 450.802 676.152 452.272 674.082 452.272C671.982 452.272 670.332 450.772 670.332 448.342V436.192H664.092V448.342C664.092 453.922 668.022 457.492 674.052 457.492C680.052 457.492 683.862 453.922 683.862 448.342V436.192ZM699.897 457.222H706.977L702.717 450.352C704.997 449.062 706.257 446.782 706.257 443.662C706.257 438.892 703.017 436.192 697.377 436.192H687.567V457.222H693.807V451.552H697.107L699.897 457.222ZM693.807 446.752V440.992H697.377C699.237 440.992 700.317 442.012 700.317 443.842C700.317 445.732 699.237 446.752 697.377 446.752H693.807ZM722.289 457.222L730.419 436.192H724.029L719.229 450.742L714.429 436.192H707.769L715.809 457.222H722.289ZM749.759 440.992V436.192H732.569V457.222H750.059V452.422H738.809V449.092H748.739V444.292H738.809V440.992H749.759ZM765.486 450.562L773.046 436.192H766.836L762.366 444.772L757.776 436.192H751.536L759.246 450.682V457.222H765.486V450.562Z" fill="#4444FF"/>
</g>
<path d="M686.048 315.432C683.48 315.432 681.152 314.88 679.064 313.776C677 312.648 675.368 311.1 674.168 309.132C672.992 307.14 672.404 304.896 672.404 302.4C672.404 299.904 672.992 297.672 674.168 295.704C675.368 293.712 677 292.164 679.064 291.06C681.152 289.932 683.492 289.368 686.084 289.368C688.268 289.368 690.236 289.752 691.988 290.52C693.764 291.288 695.252 292.392 696.452 293.832L692.708 297.288C691.004 295.32 688.892 294.336 686.372 294.336C684.812 294.336 683.42 294.684 682.196 295.38C680.972 296.052 680.012 297 679.316 298.224C678.644 299.448 678.308 300.84 678.308 302.4C678.308 303.96 678.644 305.352 679.316 306.576C680.012 307.8 680.972 308.76 682.196 309.456C683.42 310.128 684.812 310.464 686.372 310.464C688.892 310.464 691.004 309.468 692.708 307.476L696.452 310.932C695.252 312.396 693.764 313.512 691.988 314.28C690.212 315.048 688.232 315.432 686.048 315.432ZM712.863 315.432C710.247 315.432 707.883 314.868 705.771 313.74C703.683 312.612 702.039 311.064 700.839 309.096C699.663 307.104 699.075 304.872 699.075 302.4C699.075 299.928 699.663 297.708 700.839 295.74C702.039 293.748 703.683 292.188 705.771 291.06C707.883 289.932 710.247 289.368 712.863 289.368C715.479 289.368 717.831 289.932 719.919 291.06C722.007 292.188 723.651 293.748 724.851 295.74C726.051 297.708 726.651 299.928 726.651 302.4C726.651 304.872 726.051 307.104 724.851 309.096C723.651 311.064 722.007 312.612 719.919 313.74C717.831 314.868 715.479 315.432 712.863 315.432ZM712.863 310.464C714.351 310.464 715.695 310.128 716.895 309.456C718.095 308.76 719.031 307.8 719.703 306.576C720.399 305.352 720.747 303.96 720.747 302.4C720.747 300.84 720.399 299.448 719.703 298.224C719.031 297 718.095 296.052 716.895 295.38C715.695 294.684 714.351 294.336 712.863 294.336C711.375 294.336 710.031 294.684 708.831 295.38C707.631 296.052 706.683 297 705.987 298.224C705.315 299.448 704.979 300.84 704.979 302.4C704.979 303.96 705.315 305.352 705.987 306.576C706.683 307.8 707.631 308.76 708.831 309.456C710.031 310.128 711.375 310.464 712.863 310.464ZM754.761 315L754.725 299.88L747.309 312.336H744.681L737.301 300.204V315H731.829V289.8H736.653L746.085 305.46L755.373 289.8H760.161L760.233 315H754.761ZM789.94 315L789.904 299.88L782.488 312.336H779.86L772.48 300.204V315H767.008V289.8H771.832L781.264 305.46L790.552 289.8H795.34L795.412 315H789.94ZM813.382 315.432C809.782 315.432 806.974 314.436 804.958 312.444C802.966 310.452 801.97 307.608 801.97 303.912V289.8H807.802V303.696C807.802 308.208 809.674 310.464 813.418 310.464C815.242 310.464 816.634 309.924 817.594 308.844C818.554 307.74 819.034 306.024 819.034 303.696V289.8H824.794V303.912C824.794 307.608 823.786 310.452 821.77 312.444C819.778 314.436 816.982 315.432 813.382 315.432ZM854.465 289.8V315H849.677L837.113 299.7V315H831.353V289.8H836.177L848.705 305.1V289.8H854.465ZM861.222 289.8H867.054V315H861.222V289.8ZM879.051 294.552H870.987V289.8H892.947V294.552H884.883V315H879.051V294.552ZM908.519 306.072V315H902.687V306L892.931 289.8H899.123L905.855 300.996L912.587 289.8H918.311L908.519 306.072ZM682.268 359.432C680.276 359.432 678.344 359.168 676.472 358.64C674.624 358.088 673.136 357.38 672.008 356.516L673.988 352.124C675.068 352.916 676.352 353.552 677.84 354.032C679.328 354.512 680.816 354.752 682.304 354.752C683.96 354.752 685.184 354.512 685.976 354.032C686.768 353.528 687.164 352.868 687.164 352.052C687.164 351.452 686.924 350.96 686.444 350.576C685.988 350.168 685.388 349.844 684.644 349.604C683.924 349.364 682.94 349.1 681.692 348.812C679.772 348.356 678.2 347.9 676.976 347.444C675.752 346.988 674.696 346.256 673.808 345.248C672.944 344.24 672.512 342.896 672.512 341.216C672.512 339.752 672.908 338.432 673.7 337.256C674.492 336.056 675.68 335.108 677.264 334.412C678.872 333.716 680.828 333.368 683.132 333.368C684.74 333.368 686.312 333.56 687.848 333.944C689.384 334.328 690.728 334.88 691.88 335.6L690.08 340.028C687.752 338.708 685.424 338.048 683.096 338.048C681.464 338.048 680.252 338.312 679.46 338.84C678.692 339.368 678.308 340.064 678.308 340.928C678.308 341.792 678.752 342.44 679.64 342.872C680.552 343.28 681.932 343.688 683.78 344.096C685.7 344.552 687.272 345.008 688.496 345.464C689.72 345.92 690.764 346.64 691.628 347.624C692.516 348.608 692.96 349.94 692.96 351.62C692.96 353.06 692.552 354.38 691.736 355.58C690.944 356.756 689.744 357.692 688.136 358.388C686.528 359.084 684.572 359.432 682.268 359.432ZM708.937 359.432C705.337 359.432 702.529 358.436 700.513 356.444C698.521 354.452 697.525 351.608 697.525 347.912V333.8H703.357V347.696C703.357 352.208 705.229 354.464 708.973 354.464C710.797 354.464 712.189 353.924 713.149 352.844C714.109 351.74 714.589 350.024 714.589 347.696V333.8H720.349V347.912C720.349 351.608 719.341 354.452 717.325 356.444C715.333 358.436 712.537 359.432 708.937 359.432ZM742.963 359L738.103 351.98H737.815H732.739V359H726.907V333.8H737.815C740.047 333.8 741.979 334.172 743.611 334.916C745.267 335.66 746.539 336.716 747.427 338.084C748.315 339.452 748.759 341.072 748.759 342.944C748.759 344.816 748.303 346.436 747.391 347.804C746.503 349.148 745.231 350.18 743.575 350.9L749.227 359H742.963ZM742.855 342.944C742.855 341.528 742.399 340.448 741.487 339.704C740.575 338.936 739.243 338.552 737.491 338.552H732.739V347.336H737.491C739.243 347.336 740.575 346.952 741.487 346.184C742.399 345.416 742.855 344.336 742.855 342.944ZM778.404 333.8L767.496 359H761.736L750.864 333.8H757.164L764.832 351.8L772.608 333.8H778.404ZM800.815 354.32V359H781.303V333.8H800.347V338.48H787.099V343.952H798.799V348.488H787.099V354.32H800.815ZM818.101 350.072V359H812.269V350L802.513 333.8H808.705L815.437 344.996L822.169 333.8H827.893L818.101 350.072Z" fill="#3FDFF0"/>
<path d="M472.896 348.44V359H423.36V350.648L450.048 325.304C453.056 322.424 455.072 319.928 456.096 317.816C457.184 315.64 457.728 313.496 457.728 311.384C457.728 308.248 456.672 305.848 454.56 304.184C452.448 302.52 449.344 301.688 445.248 301.688C438.4 301.688 433.152 304.024 429.504 308.696L420.768 301.976C423.392 298.456 426.912 295.736 431.328 293.816C435.808 291.832 440.8 290.84 446.304 290.84C453.6 290.84 459.424 292.568 463.776 296.024C468.128 299.48 470.304 304.184 470.304 310.136C470.304 313.784 469.536 317.208 468 320.408C466.464 323.608 463.52 327.256 459.168 331.352L441.216 348.44H472.896ZM511.233 359.96C505.857 359.96 501.057 358.616 496.833 355.928C492.609 353.176 489.281 349.208 486.849 344.024C484.417 338.776 483.201 332.568 483.201 325.4C483.201 318.232 484.417 312.056 486.849 306.872C489.281 301.624 492.609 297.656 496.833 294.968C501.057 292.216 505.857 290.84 511.233 290.84C516.609 290.84 521.409 292.216 525.633 294.968C529.921 297.656 533.281 301.624 535.713 306.872C538.145 312.056 539.361 318.232 539.361 325.4C539.361 332.568 538.145 338.776 535.713 344.024C533.281 349.208 529.921 353.176 525.633 355.928C521.409 358.616 516.609 359.96 511.233 359.96ZM511.233 349.112C516.033 349.112 519.809 347.128 522.561 343.16C525.377 339.192 526.785 333.272 526.785 325.4C526.785 317.528 525.377 311.608 522.561 307.64C519.809 303.672 516.033 301.688 511.233 301.688C506.497 301.688 502.721 303.672 499.905 307.64C497.153 311.608 495.777 317.528 495.777 325.4C495.777 333.272 497.153 339.192 499.905 343.16C502.721 347.128 506.497 349.112 511.233 349.112ZM599.381 348.44V359H549.845V350.648L576.533 325.304C579.541 322.424 581.557 319.928 582.581 317.816C583.669 315.64 584.213 313.496 584.213 311.384C584.213 308.248 583.157 305.848 581.045 304.184C578.933 302.52 575.829 301.688 571.733 301.688C564.885 301.688 559.637 304.024 555.989 308.696L547.253 301.976C549.877 298.456 553.397 295.736 557.813 293.816C562.293 291.832 567.285 290.84 572.789 290.84C580.085 290.84 585.909 292.568 590.261 296.024C594.613 299.48 596.789 304.184 596.789 310.136C596.789 313.784 596.021 317.208 594.485 320.408C592.949 323.608 590.005 327.256 585.653 331.352L567.701 348.44H599.381ZM633.199 291.8V359H620.719V302.264H606.511V291.8H633.199Z" fill="white"/>
<path d="M988.856 -79.4958L1111.81 -8.50811L988.856 62.4795L988.856 -79.4958Z" stroke="url(#paint2_linear)" stroke-width="30"/>
<path d="M471.755 219.734V174.973H452.774V224.441C452.774 228.546 452.473 233.854 447.049 233.854C442.229 233.854 441.526 228.947 441.325 225.242H421.139C421.139 236.057 425.558 244.869 436.103 248.674C439.216 249.876 442.731 250.477 446.146 250.477C454.079 250.477 462.114 246.972 467.135 240.763C471.755 234.955 471.755 226.844 471.755 219.734Z" fill="white"/>
<path d="M541.211 249.075V193.498H524.54V199.406H524.339C521.025 193.899 514.196 191.596 508.07 191.596C491.298 191.596 480.05 205.014 480.05 221.236C480.05 237.759 490.896 250.977 508.07 250.977C514.095 250.977 521.326 248.774 524.339 243.066H524.54V249.075H541.211ZM524.54 221.236C524.54 229.247 518.715 235.456 510.58 235.456C502.747 235.456 496.721 229.147 496.721 221.437C496.721 213.526 502.345 207.117 510.48 207.117C518.615 207.117 524.54 213.125 524.54 221.236Z" fill="white"/>
<path d="M638.939 249.075V218.733C638.939 210.221 639.24 203.612 632.913 197.203C628.996 193.198 623.774 191.596 618.251 191.596C610.718 191.596 604.592 195.201 600.575 201.509C597.16 195.201 591.737 191.596 584.506 191.596C578.179 191.596 572.354 193.699 569.141 199.406H568.94V193.498H553.373V249.075H570.045V219.534C570.045 213.025 571.752 207.217 579.485 207.217C586.515 207.217 587.821 213.125 587.821 218.833V249.075H604.492V218.733C604.492 212.424 606.299 207.217 613.731 207.217C621.464 207.217 622.268 213.426 622.268 219.534V249.075H638.939Z" fill="white"/>
<path d="M692.443 232.051C692.443 212.424 664.423 217.331 664.423 208.619C664.423 206.116 666.934 204.914 669.143 204.914C672.055 204.914 674.265 206.015 674.365 209.12H690.735C689.631 197.303 680.492 191.596 669.344 191.596C658.598 191.596 647.752 198.305 647.752 209.921C647.752 217.732 654.38 222.037 661.008 224.441C663.419 225.342 665.829 226.143 668.239 226.944C671.252 228.146 675.771 229.347 675.771 233.353C675.771 236.257 672.457 237.659 669.946 237.659C666.632 237.659 664.122 235.957 663.619 232.552H647.049C648.354 244.769 658.096 250.977 669.746 250.977C681.094 250.977 692.443 244.568 692.443 232.051Z" fill="white"/>
<path d="M728.8 206.116V193.498H720.766V174.973H704.095V193.498H695.86V206.116H704.095V249.075H720.766V206.116H728.8Z" fill="white"/>
<path d="M793.069 249.075V193.498H776.397V199.406H776.197C772.882 193.899 766.053 191.596 759.927 191.596C743.155 191.596 731.907 205.014 731.907 221.236C731.907 237.759 742.754 250.977 759.927 250.977C765.953 250.977 773.184 248.774 776.197 243.066H776.397V249.075H793.069ZM776.397 221.236C776.397 229.247 770.573 235.456 762.438 235.456C754.604 235.456 748.579 229.147 748.579 221.437C748.579 213.526 754.203 207.117 762.337 207.117C770.472 207.117 776.397 213.125 776.397 221.236Z" fill="white"/>
<path d="M861.572 227.946H844.599C842.088 232.752 838.071 235.356 832.548 235.356C824.413 235.356 819.291 229.047 819.291 221.236C819.291 213.726 824.111 207.117 832.146 207.117C837.87 207.117 842.189 209.721 844.599 214.928H861.471C858.559 200.808 846.206 191.596 831.945 191.596C815.374 191.596 802.519 204.714 802.519 221.136C802.519 237.759 815.675 250.877 832.347 250.877C846.407 250.877 858.358 241.564 861.572 227.946Z" fill="white"/>
<path d="M921.999 193.498H902.215L886.749 213.626H886.548V174.973H869.877V249.075H886.548V222.338H886.749L902.516 249.075H921.397L901.01 217.932L921.999 193.498Z" fill="white"/>
<path d="M263.007 159.657C205.332 159.657 158.704 206.15 158.704 263.657C158.704 321.165 205.332 367.657 263.007 367.657C320.682 367.657 367.31 321.165 367.31 263.657V159.657H263.007Z" fill="#F0047F"/>
<path d="M259.878 266.636V340.045C219.968 338.491 187.811 306.425 186.251 266.636H259.878Z" fill="white" stroke="#F0047F" stroke-width="1.66666"/>
<path d="M265.992 266.782H339.618C338.059 306.57 305.902 338.637 265.992 340.19V266.782Z" fill="white" stroke="#F0047F" stroke-width="1.66666"/>
<path d="M265.992 260.535V187.099H339.647V260.535H265.992Z" fill="white" stroke="#F0047F" stroke-width="1.66666"/>
</g>
<defs>
<filter id="filter0_d" x="372.124" y="384.272" width="507.751" height="183.751" filterUnits="userSpaceOnUse" color-interpolation-filters="sRGB">
<feFlood flood-opacity="0" result="BackgroundImageFix"/>
<feColorMatrix in="SourceAlpha" type="matrix" values="0 0 0 0 0 0 0 0 0 0 0 0 0 0 0 0 0 0 127 0"/>
<feOffset dy="29.9253"/>
<feGaussianBlur stdDeviation="24.9378"/>
<feColorMatrix type="matrix" values="0 0 0 0 0 0 0 0 0 0.466667 0 0 0 0 1 0 0 0 0.15 0"/>
<feBlend mode="normal" in2="BackgroundImageFix" result="effect1_dropShadow"/>
<feBlend mode="normal" in="SourceGraphic" in2="effect1_dropShadow" result="shape"/>
</filter>
<linearGradient id="paint0_linear" x1="0" y1="0" x2="0" y2="228.603" gradientUnits="userSpaceOnUse">
<stop stop-color="#FFC803"/>
<stop offset="1" stop-color="#FC814A"/>
</linearGradient>
<linearGradient id="paint1_linear" x1="1117" y1="528.305" x2="1117" y2="553.305" gradientUnits="userSpaceOnUse">
<stop stop-color="#F0047F"/>
<stop offset="1" stop-color="#FC814A"/>
</linearGradient>
<linearGradient id="paint2_linear" x1="917.868" y1="-38.511" x2="999.838" y2="103.464" gradientUnits="userSpaceOnUse">
<stop stop-color="#04A2DD"/>
<stop offset="1" stop-color="#4FF3EA"/>
</linearGradient>
<clipPath id="clip0">
<rect width="1200" height="623" fill="white" transform="translate(0 0.304688)"/>
</clipPath>
</defs>
</svg>
