<svg width="525" height="246" xmlns="http://www.w3.org/2000/svg"><path d="M10.502 163.35l7.492-2.727 3.87 23.159 14.985-5.454-3.982-23.118 7.716-2.809 3.982 23.119 10.958-3.99 2.564 7.046-12.636 4.599 3.452 18.879 11.966-4.355 2.564 7.045-13.755 5.006 4.176 24.694-7.38 2.686-4.288-24.653-14.872 5.413 3.952 24.775-7.269 2.646-4.287-24.653-11.63 4.232-2.564-7.044 13.307-4.844-3.452-18.879-12.189 4.437-2.564-7.045 13.754-5.006-3.87-23.16zm12.473 28.006l3.452 18.879 14.872-5.414-3.452-18.878-14.872 5.413zm53.05-51.855l9.617-3.5 19.536 53.675c6.43 17.668-.602 27.573-14.244 32.538-3.914 1.425-7.808 2.209-11.752 2.505l-2.85-7.828c3.752-.479 7.005-1.283 10.248-2.463 10.847-3.948 13.174-9.734 9.755-19.127l-20.31-55.8zm41.817-15.22l11.07-4.03 52.857 67.636-9.84 3.581-15.856-19.556-28.403 10.338 1.319 24.847-8.051 2.93-3.096-85.746zm33.46 41.136l-25.13-32.517 1.536 41.104 23.595-8.587zm10.146-57.007l14.313-5.21 45.492 52.966.244-69.612 14.09-5.128 27.92 76.71-9.617 3.5-24.38-66.981-.447.162.114 75.815-6.485 2.36-49.205-57.947-.447.163 24.38 66.982-8.052 2.93-27.92-76.71zm115.85-21.27c11.741-4.274 21.96-2.295 27.686 6.132l-7.441 4.608c-3.977-5.011-10.636-6.26-17.793-3.655-6.821 2.483-10.978 7.415-9.065 12.67 1.628 4.473 5.624 6.058 11.652 4.877 5.917-1.14 11.275-2.077 16.002-2.658 9.343-1.121 16.35 3.167 19.117 10.771 3.989 10.959-3.227 21.056-17.205 26.144-12.86 4.68-24.521 2.213-30.838-7.138l7.888-4.77c3.408 6.23 12.365 7.53 20.976 4.395 8.387-3.052 12.492-8.472 10.335-14.399-1.587-4.361-5.847-5.976-12.893-4.805l-11.203 1.925c-11.092 1.884-19.144-.757-22.4-9.703-3.826-10.511 3.105-20 15.182-24.395zm41.649-30.99l5.454 14.985 12.636-4.6 2.523 6.934-12.636 4.599 12.617 34.665c2.483 6.821 6.113 8.793 12.375 6.513 2.46-.895 4.646-2.197 6.73-3.082l2.523 6.933c-4.645 2.197-7.471 3.48-8.366 3.805-10.847 3.948-18.036-.147-22.432-12.224l-12.17-33.436-10.063 3.664-2.524-6.934 10.065-3.663-5.129-14.09 8.397-4.069zm49.923-2.34c9.84-3.582 15.463-3.096 19.978-.433 4.78 2.692 7.536 7.134 10.466 15.186l8.832 24.265c.936 2.572 2.646 7.269 5.3 10.735l-8.722 3.175-4.873-10.257c-1.126 9.78-6.685 15.73-15.63 18.986-11.63 4.233-22.236.494-26.062-10.017-1.668-4.585-1.507-9.709 1.43-15.21 2.936-5.501 9.614-10.464 23.48-15.511l7.828-2.85-1.017-2.795c-3.541-9.729-9.47-11.75-19.31-8.168-9.057 3.296-13.01 8.788-11.88 15.721l-8.652 1.63c-2.422-10.136 5.302-19.533 18.832-24.458zm-1.155 48.669c2.28 6.262 8.655 8.12 15.923 5.475 10.624-3.867 14.748-15.499 11.003-25.787l-1.343-3.69-8.163 2.971c-14.425 5.25-20.513 12.532-17.42 21.03zM424.89 33.42c11.63-4.233 22.245-.119 28.968 11.744l-7.522 4.384c-4.1-8.132-11.044-11.556-18.537-8.83-9.84 3.582-11.91 14.593-7.23 27.453 5.006 13.754 13.477 20.676 22.87 17.257 7.492-2.727 10.632-9.062 9.043-18.995l8.58-1.476c2.251 13.49-3.378 23.77-14.672 27.881-15.097 5.495-28.631-3.509-34.9-20.73-6.145-16.885-1.697-33.194 13.4-38.688zm25.036-30.008l8.723-3.175 17.867 49.09 15.737-38.526 9.393-3.42-10.423 26.336 33.366 29.393-9.281 3.378-28.068-25.622-7.06 18.526 6.39 17.556-8.723 3.175-27.92-76.711z" fill="#292929" fill-rule="evenodd"/></svg>