<svg width="467" height="249" xmlns="http://www.w3.org/2000/svg"><g fill="#B50938" fill-rule="evenodd"><path d="M180.465 8.55l59.85 144.9V8.55h39.9V242h-45.85l-71.05-169.05V242h-39.9V8.55h57.05zm118.42 0h61.25c34.3 0 59.85 9.275 76.65 27.825 16.8 18.55 25.2 47.658 25.2 87.325 0 36.167-7.758 64.925-23.275 86.275C423.193 231.325 400.968 242 372.035 242h-73.15V8.55zm51.1 193.2h14.35c14.7 0 25.608-6.417 32.725-19.25 7.117-12.833 10.675-32.667 10.675-59.5 0-26.6-3.675-45.617-11.025-57.05-7.35-11.433-18.375-17.15-33.075-17.15h-13.65v152.95zM70.025 64.45h31.85v37.8h-31.85v66.5c0 6.767.233 12.833.7 18.2.467 5.367 2.45 8.983 5.95 10.85 3.5 1.867 8.517 2.8 15.05 2.8 6.533 0 10.733-.117 12.6-.35V237c-12.133 2.333-21.583 3.5-28.35 3.5-18.433 0-31.85-4.2-40.25-12.6-8.4-8.4-12.6-22.75-12.6-43.05v-82.6h-18.9v-37.8h21.35l3.85-50.75 40.6-3.85v54.6z"/></g></svg>