<svg width="1600" height="333" xmlns="http://www.w3.org/2000/svg"><g fill="none" fill-rule="evenodd"><path d="M0 0h1600v333H0z"/><path d="M16.71 243.97h8.19v27.51h.42c3.675-6.93 8.715-10.185 15.225-10.185 13.44 0 21.84 11.235 21.84 27.3 0 15.33-7.77 28.455-22.155 28.455-6.72 0-13.02-3.78-16.485-10.185L20.7 316h-3.99v-72.03zm36.855 46.2c0-13.44-4.935-22.26-14.175-22.26-7.98 0-14.49 8.085-14.49 17.85v7.14c0 11.76 7.14 17.535 14.595 17.535 9.345 0 14.07-8.82 14.07-20.265zm32.355-27.51h8.19v33.81c0 10.71 6.195 13.44 10.5 13.44 7.98 0 15.015-7.035 15.015-18.375V262.66h8.19V316h-7.455v-10.605h-.21c-2.94 7.14-9.345 11.655-16.38 11.655-9.87 0-17.85-5.88-17.85-21.105V262.66zm69.315-18.69h9.03v9.24h-9.03v-9.24zm.42 18.69h8.19V316h-8.19v-53.34zm36.975-18.69h8.19V316h-8.19v-72.03zm69.945 0h8.19V316h-7.455v-9.45h-.21c-3.465 6.825-8.82 10.5-16.695 10.5-12.285 0-21.315-11.235-21.315-27.72 0-15.54 8.19-28.035 22.05-28.035 6.825 0 11.655 3.15 15.435 8.61V243.97zm-28.665 44.415c0 13.44 4.83 21.84 13.755 21.84 7.455 0 14.91-6.615 14.91-16.905v-9.45c0-11.025-7.035-16.065-14.805-16.065-7.665 0-13.86 7.455-13.86 20.58zm105.45-44.415h8.19v27.51h.42c3.675-6.93 8.715-10.185 15.225-10.185 13.44 0 21.84 11.235 21.84 27.3 0 15.33-7.77 28.455-22.155 28.455-6.72 0-13.02-3.78-16.485-10.185L343.35 316h-3.99v-72.03zm36.855 46.2c0-13.44-4.935-22.26-14.175-22.26-7.98 0-14.49 8.085-14.49 17.85v7.14c0 11.76 7.14 17.535 14.595 17.535 9.345 0 14.07-8.82 14.07-20.265zm53.67-28.875c14.91 0 23.31 11.445 23.31 27.51v1.155H414.45v1.26c0 14.7 9.03 18.9 15.96 18.9 6.93 0 11.97-3.99 14.175-10.29l7.77 1.575c-3.255 9.66-12.285 15.645-22.68 15.645-14.91 0-24.465-11.34-24.465-27.72 0-15.75 9.66-28.035 24.675-28.035zM414.87 283.87h29.295c0-9.765-5.565-16.275-14.385-16.275-7.875 0-14.28 6.51-14.91 16.275zm72.885-35.7v14.07h11.865v6.51h-11.865v32.55c0 6.405 2.415 9.135 8.295 9.135 2.31 0 4.515-.42 6.51-.525v6.51c-4.515.42-7.245.63-8.085.63-10.185 0-14.91-5.565-14.91-16.905V268.75h-9.45v-6.51h9.45v-13.23l8.19-.84zm45.375 0v14.07h11.865v6.51H533.13v32.55c0 6.405 2.415 9.135 8.295 9.135 2.31 0 4.515-.42 6.51-.525v6.51c-4.515.42-7.245.63-8.085.63-10.185 0-14.91-5.565-14.91-16.905V268.75h-9.45v-6.51h9.45v-13.23l8.19-.84zm55.98 13.125c14.91 0 23.31 11.445 23.31 27.51v1.155h-38.745v1.26c0 14.7 9.03 18.9 15.96 18.9 6.93 0 11.97-3.99 14.175-10.29l7.77 1.575c-3.255 9.66-12.285 15.645-22.68 15.645-14.91 0-24.465-11.34-24.465-27.72 0-15.75 9.66-28.035 24.675-28.035zm-15.015 22.575h29.295c0-9.765-5.565-16.275-14.385-16.275-7.875 0-14.28 6.51-14.91 16.275zm85.59-22.68c.945 0 1.995.105 3.15.21v7.875h-1.785c-9.66 0-16.275 8.4-16.275 19.11V316h-8.19v-53.34h7.35v12.495h.21c3.255-9.345 8.505-13.965 15.54-13.965zm82.665-18.375c2.1 0 5.88.315 9.555.84v6.615c-2.415-.42-4.095-.84-6.51-.84-5.67 0-9.03 1.785-9.03 10.815v2.415h12.39v6.51h-12.39V316h-8.19v-46.83h-9.45v-6.51h9.45v-1.575c0-11.76 4.935-18.27 14.175-18.27zm47.055 18.48c9.24 0 13.755 2.1 16.695 5.67 3.15 3.675 4.095 8.19 4.095 15.75V305.5c0 2.415 0 6.825 1.155 10.5h-8.19l-.945-9.975c-3.885 7.77-10.29 11.025-18.69 11.025-10.92 0-18.585-6.3-18.585-16.17 0-4.305 1.68-8.505 5.775-12.18 4.095-3.675 11.13-5.775 24.15-5.775h7.35V280.3c0-9.135-4.305-12.6-13.545-12.6-8.505 0-13.44 3.36-14.595 9.45l-7.665-1.26c1.05-9.135 10.29-14.595 22.995-14.595zM773.76 301.3c0 5.88 4.725 9.345 11.55 9.345 9.975 0 16.905-8.4 16.905-18.06v-3.465h-7.665c-13.545 0-20.79 4.2-20.79 12.18zm82.335-40.005c11.025 0 18.9 4.725 21.105 13.44l-7.56 1.575c-1.785-5.355-6.93-8.4-13.65-8.4-6.405 0-11.34 2.835-11.34 7.77 0 4.2 2.835 6.72 8.19 7.56 5.25.84 9.975 1.68 14.07 2.625 8.085 1.89 12.6 7.56 12.6 14.7 0 10.29-9.03 16.485-22.155 16.485-12.075 0-21-5.565-23.415-15.225l7.98-1.575c.945 6.195 7.98 9.975 16.065 9.975 7.875 0 12.915-3.255 12.915-8.82 0-4.095-3.045-6.72-9.24-7.875l-9.87-1.785c-9.765-1.785-15.645-6.405-15.645-14.805 0-9.87 8.61-15.645 19.95-15.645zm57.66-13.125v14.07h11.865v6.51h-11.865v32.55c0 6.405 2.415 9.135 8.295 9.135 2.31 0 4.515-.42 6.51-.525v6.51c-4.515.42-7.245.63-8.085.63-10.185 0-14.91-5.565-14.91-16.905V268.75h-9.45v-6.51h9.45v-13.23l8.19-.84zm55.98 13.125c14.91 0 23.31 11.445 23.31 27.51v1.155H954.3v1.26c0 14.7 9.03 18.9 15.96 18.9 6.93 0 11.97-3.99 14.175-10.29l7.77 1.575c-3.255 9.66-12.285 15.645-22.68 15.645-14.91 0-24.465-11.34-24.465-27.72 0-15.75 9.66-28.035 24.675-28.035zM954.72 283.87h29.295c0-9.765-5.565-16.275-14.385-16.275-7.875 0-14.28 6.51-14.91 16.275zm85.59-22.68c.945 0 1.995.105 3.15.21v7.875h-1.785c-9.66 0-16.275 8.4-16.275 19.11V316h-8.19v-53.34h7.35v12.495h.21c3.255-9.345 8.505-13.965 15.54-13.965zm58.83 1.47h8.295l11.55 39.795 11.13-39.795h5.985l11.97 39.9 11.97-39.9h6.72L1151.43 316h-6.72l-11.865-39.585-10.92 39.585h-6.825l-15.96-53.34zm106.695-1.365c14.91 0 23.31 11.445 23.31 27.51v1.155H1190.4v1.26c0 14.7 9.03 18.9 15.96 18.9 6.93 0 11.97-3.99 14.175-10.29l7.77 1.575c-3.255 9.66-12.285 15.645-22.68 15.645-14.91 0-24.465-11.34-24.465-27.72 0-15.75 9.66-28.035 24.675-28.035zm-15.015 22.575h29.295c0-9.765-5.565-16.275-14.385-16.275-7.875 0-14.28 6.51-14.91 16.275zm61.44-39.9h8.19v27.51h.42c3.675-6.93 8.715-10.185 15.225-10.185 13.44 0 21.84 11.235 21.84 27.3 0 15.33-7.77 28.455-22.155 28.455-6.72 0-13.02-3.78-16.485-10.185L1256.25 316h-3.99v-72.03zm36.855 46.2c0-13.44-4.935-22.26-14.175-22.26-7.98 0-14.49 8.085-14.49 17.85v7.14c0 11.76 7.14 17.535 14.595 17.535 9.345 0 14.07-8.82 14.07-20.265zm51.78-28.875c11.025 0 18.9 4.725 21.105 13.44l-7.56 1.575c-1.785-5.355-6.93-8.4-13.65-8.4-6.405 0-11.34 2.835-11.34 7.77 0 4.2 2.835 6.72 8.19 7.56 5.25.84 9.975 1.68 14.07 2.625 8.085 1.89 12.6 7.56 12.6 14.7 0 10.29-9.03 16.485-22.155 16.485-12.075 0-21-5.565-23.415-15.225l7.98-1.575c.945 6.195 7.98 9.975 16.065 9.975 7.875 0 12.915-3.255 12.915-8.82 0-4.095-3.045-6.72-9.24-7.875l-9.87-1.785c-9.765-1.785-15.645-6.405-15.645-14.805 0-9.87 8.61-15.645 19.95-15.645zm47.79-17.325h9.03v9.24h-9.03v-9.24zm.42 18.69h8.19V316h-8.19v-53.34zm46.425-14.49v14.07h11.865v6.51h-11.865v32.55c0 6.405 2.415 9.135 8.295 9.135 2.31 0 4.515-.42 6.51-.525v6.51c-4.515.42-7.245.63-8.085.63-10.185 0-14.91-5.565-14.91-16.905V268.75h-9.45v-6.51h9.45v-13.23l8.19-.84zm55.98 13.125c14.91 0 23.31 11.445 23.31 27.51v1.155h-38.745v1.26c0 14.7 9.03 18.9 15.96 18.9 6.93 0 11.97-3.99 14.175-10.29l7.77 1.575c-3.255 9.66-12.285 15.645-22.68 15.645-14.91 0-24.465-11.34-24.465-27.72 0-15.75 9.66-28.035 24.675-28.035zm-15.015 22.575h29.295c0-9.765-5.565-16.275-14.385-16.275-7.875 0-14.28 6.51-14.91 16.275zm81.6-22.575c11.025 0 18.9 4.725 21.105 13.44l-7.56 1.575c-1.785-5.355-6.93-8.4-13.65-8.4-6.405 0-11.34 2.835-11.34 7.77 0 4.2 2.835 6.72 8.19 7.56 5.25.84 9.975 1.68 14.07 2.625 8.085 1.89 12.6 7.56 12.6 14.7 0 10.29-9.03 16.485-22.155 16.485-12.075 0-21-5.565-23.415-15.225l7.98-1.575c.945 6.195 7.98 9.975 16.065 9.975 7.875 0 12.915-3.255 12.915-8.82 0-4.095-3.045-6.72-9.24-7.875l-9.87-1.785c-9.765-1.785-15.645-6.405-15.645-14.805 0-9.87 8.61-15.645 19.95-15.645z" fill="#292929"/><path d="M61.24 56.68h21.84V82.6H61.24v45.6c0 4.64.16 8.8.48 12.48.32 3.68 1.68 6.16 4.08 7.44 2.4 1.28 5.84 1.92 10.32 1.92s7.36-.08 8.64-.24V175c-8.32 1.6-14.8 2.4-19.44 2.4-12.64 0-21.84-2.88-27.6-8.64-5.76-5.76-8.64-15.6-8.64-29.52V82.6H16.12V56.68h14.64l2.64-34.8 27.84-2.64v37.44zm69.6-41.76v54.24c3.2-5.44 7.28-9.32 12.24-11.64 4.96-2.32 10.56-3.48 16.8-3.48 10.56 0 18.16 3.12 22.8 9.36 4.64 6.24 6.96 16 6.96 29.28V175h-32.88V94.6c0-4.48-.76-8.08-2.28-10.8-1.52-2.72-4.44-4.08-8.76-4.08-5.6 0-9.48 1.48-11.64 4.44-2.16 2.96-3.24 7.72-3.24 14.28V175H97.96V14.92h32.88zm172.8 101.52v4.8h-62.16v7.44c0 9.12 1.2 15.72 3.6 19.8 2.4 4.08 6.48 6.12 12.24 6.12 4.96 0 8.84-1.6 11.64-4.8 2.8-3.2 4.52-8.4 5.16-15.6l29.52 1.92c-2.72 13.92-8.04 24.28-15.96 31.08-7.92 6.8-18.28 10.2-31.08 10.2-15.52 0-27.6-5.24-36.24-15.72s-12.96-25.24-12.96-44.28c0-20.64 4.44-36.36 13.32-47.16 8.88-10.8 20.68-16.2 35.4-16.2 15.2 0 26.92 5.32 35.16 15.96 8.24 10.64 12.36 26.12 12.36 46.44zm-31.2-14.16V98.2c0-7.36-1.28-12.92-3.84-16.68-2.56-3.76-6.48-5.64-11.76-5.64-4.96 0-8.72 2.2-11.28 6.6-2.56 4.4-3.84 10.68-3.84 18.84v.96h30.72zM424.6 14.92l41.04 99.36V14.92H493V175h-31.44L412.84 59.08V175h-27.36V14.92h39.12zm185.52 101.52v4.8h-62.16v7.44c0 9.12 1.2 15.72 3.6 19.8 2.4 4.08 6.48 6.12 12.24 6.12 4.96 0 8.84-1.6 11.64-4.8 2.8-3.2 4.52-8.4 5.16-15.6l29.52 1.92c-2.72 13.92-8.04 24.28-15.96 31.08-7.92 6.8-18.28 10.2-31.08 10.2-15.52 0-27.6-5.24-36.24-15.72s-12.96-25.24-12.96-44.28c0-20.64 4.44-36.36 13.32-47.16 8.88-10.8 20.68-16.2 35.4-16.2 15.2 0 26.92 5.32 35.16 15.96 8.24 10.64 12.36 26.12 12.36 46.44zm-31.2-14.16V98.2c0-7.36-1.28-12.92-3.84-16.68-2.56-3.76-6.48-5.64-11.76-5.64-4.96 0-8.72 2.2-11.28 6.6-2.56 4.4-3.84 10.68-3.84 18.84v.96h30.72zm68.4-45.6l13.92 72 13.2-72h32.16l10.56 72 16.08-72h25.92L729.4 175h-27.6l-15.12-80.16L671.8 175h-26.88L615.16 56.68h32.16zm185.04-41.76h42c23.52 0 41.04 6.36 52.56 19.08 11.52 12.72 17.28 32.68 17.28 59.88 0 24.8-5.32 44.52-15.96 59.16C917.6 167.68 902.36 175 882.52 175h-50.16V14.92zM867.4 147.4h9.84c10.08 0 17.56-4.4 22.44-13.2 4.88-8.8 7.32-22.4 7.32-40.8 0-18.24-2.52-31.28-7.56-39.12-5.04-7.84-12.6-11.76-22.68-11.76h-9.36V147.4zm114.48-90.72l16.08 72.48 15.36-72.48h28.32l-33.36 112.8c-5.44 20.8-11 33.92-16.68 39.36-5.68 5.44-13.56 8.16-23.64 8.16-1.92 0-3.68-.08-5.28-.24-1.6-.16-4.56-.72-8.88-1.68v-25.92c3.04.48 6.08.72 9.12.72 6.88 0 11.4-1.08 13.56-3.24s4.28-6.76 6.36-13.8L949 56.68h32.88zm160.08 29.76V175h-32.88V96.04c0-5.76-.8-9.92-2.4-12.48-1.6-2.56-4.56-3.84-8.88-3.84-5.6 0-9.44 1.64-11.52 4.92-2.08 3.28-3.12 8.52-3.12 15.72V175h-32.88V56.68h31.2v16.08c3.36-7.04 7.36-11.92 12-14.64 4.64-2.72 10.48-4.08 17.52-4.08 10.08 0 17.76 2.84 23.04 8.52 5.28 5.68 7.92 13.64 7.92 23.88zM1226.2 175c-.8-2.24-1.28-4.84-1.44-7.8-.16-2.96-.24-6.44-.24-10.44-3.84 7.04-8.36 12.24-13.56 15.6-5.2 3.36-11.56 5.04-19.08 5.04-9.44 0-16.96-2.88-22.56-8.64-5.6-5.76-8.4-13.68-8.4-23.76 0-14.24 4.84-24.76 14.52-31.56 9.68-6.8 25.16-10.76 46.44-11.88v-4.8c0-8.96-.96-14.68-2.88-17.16-1.92-2.48-4.88-3.72-8.88-3.72-4.48 0-7.8 1.44-9.96 4.32-2.16 2.88-3.56 7.52-4.2 13.92L1165 91c1.12-11.36 5.96-20.36 14.52-27 8.56-6.64 19.64-9.96 33.24-9.96 13.12 0 23.4 3.24 30.84 9.72 7.44 6.48 11.16 16.12 11.16 28.92v59.28c0 5.44.12 9.96.36 13.56.24 3.6.76 6.76 1.56 9.48h-30.48zm-4.32-56.64c-9.92 1.12-16.88 3.28-20.88 6.48-4 3.2-6 8.4-6 15.6 0 4.32.84 7.92 2.52 10.8 1.68 2.88 4.52 4.32 8.52 4.32 4.96 0 8.84-2.44 11.64-7.32 2.8-4.88 4.2-11.96 4.2-21.24v-8.64zm142.8-45.6c2.72-6.4 6.44-11.12 11.16-14.16 4.72-3.04 10.68-4.56 17.88-4.56 10.88 0 18.64 2.88 23.28 8.64 4.64 5.76 6.96 14.48 6.96 26.16V175h-32.88V93.4c0-4.64-.8-8.08-2.4-10.32-1.6-2.24-4.32-3.36-8.16-3.36-4.8 0-8.08 1.6-9.84 4.8-1.76 3.2-2.64 8.8-2.64 16.8V175h-32.88V98.44c0-6.56-.56-11.28-1.68-14.16-1.12-2.88-4-4.32-8.64-4.32-5.28 0-8.72 1.92-10.32 5.76-1.6 3.84-2.4 10.08-2.4 18.72V175h-32.88V56.68h31.2v16.08c5.44-12.48 15.04-18.72 28.8-18.72 7.04 0 12.64 1.48 16.8 4.44 4.16 2.96 7.04 7.72 8.64 14.28zm115.2-58.8V46.6h-33.36V13.96h33.36zm-.24 42.72V175h-32.88V56.68h32.88zm112.56 43.44l-30.72 1.2c-.48-7.52-1.64-13.08-3.48-16.68-1.84-3.6-5-5.4-9.48-5.4-5.76 0-9.96 2.8-12.6 8.4-2.64 5.6-3.96 14.48-3.96 26.64 0 12.8 1.28 22.08 3.84 27.84 2.56 5.76 6.56 8.64 12 8.64 4.32 0 7.6-1.72 9.84-5.16 2.24-3.44 3.52-9 3.84-16.68l30.72 1.92c-1.44 16-6.04 27.76-13.8 35.28-7.76 7.52-18.6 11.28-32.52 11.28-15.36 0-27.04-5.32-35.04-15.96s-12-25.8-12-45.48c0-20 4.2-35.32 12.6-45.96 8.4-10.64 20.44-15.96 36.12-15.96 13.44 0 24.12 4.08 32.04 12.24 7.92 8.16 12.12 19.44 12.6 33.84z" fill="#B50938"/></g></svg>