<?xml version="1.0" encoding="UTF-8"?>
<svg width="435px" height="91px" viewBox="0 0 435 91" version="1.1" xmlns="http://www.w3.org/2000/svg" xmlns:xlink="http://www.w3.org/1999/xlink">
    <!-- Generator: Sketch 52.5 (67469) - http://www.bohemiancoding.com/sketch -->
    <title>tnd-logo</title>
    <desc>Created with Sketch.</desc>
    <g id="tnd-logo" stroke="none" stroke-width="1" fill="none" fill-rule="evenodd">
        <g id="Group" transform="translate(3.000000, 3.000000)">
            <path d="M4.12599858,59.792 L6.30999858,59.792 L6.30999858,67.128 L6.42199858,67.128 C7.40199858,65.28 8.74599858,64.412 10.4819986,64.412 C14.0659986,64.412 16.3059986,67.408 16.3059986,71.692 C16.3059986,75.78 14.2339986,79.28 10.3979986,79.28 C8.60599858,79.28 6.92599858,78.272 6.00199858,76.564 L5.18999858,79 L4.12599858,79 L4.12599858,59.792 Z M13.9539986,72.112 C13.9539986,68.528 12.6379986,66.176 10.1739986,66.176 C8.04599858,66.176 6.30999858,68.332 6.30999858,70.936 L6.30999858,72.84 C6.30999858,75.976 8.21399858,77.516 10.2019986,77.516 C12.6939986,77.516 13.9539986,75.164 13.9539986,72.112 Z M22.5819987,64.776 L24.7659987,64.776 L24.7659987,73.792 C24.7659987,76.648 26.4179987,77.376 27.5659987,77.376 C29.6939987,77.376 31.5699987,75.5 31.5699987,72.476 L31.5699987,64.776 L33.7539987,64.776 L33.7539987,79 L31.7659987,79 L31.7659987,76.172 L31.7099987,76.172 C30.9259987,78.076 29.2179987,79.28 27.3419987,79.28 C24.7099987,79.28 22.5819987,77.712 22.5819987,73.652 L22.5819987,64.776 Z M41.0659988,59.792 L43.4739988,59.792 L43.4739988,62.256 L41.0659988,62.256 L41.0659988,59.792 Z M41.1779988,64.776 L43.3619988,64.776 L43.3619988,79 L41.1779988,79 L41.1779988,64.776 Z M51.0379989,59.792 L53.2219989,59.792 L53.2219989,79 L51.0379989,79 L51.0379989,59.792 Z M69.689999,59.792 L71.873999,59.792 L71.873999,79 L69.885999,79 L69.885999,76.48 L69.829999,76.48 C68.905999,78.3 67.477999,79.28 65.377999,79.28 C62.101999,79.28 59.693999,76.284 59.693999,71.888 C59.693999,67.744 61.877999,64.412 65.573999,64.412 C67.393999,64.412 68.681999,65.252 69.689999,66.708 L69.689999,59.792 Z M62.045999,71.636 C62.045999,75.22 63.333999,77.46 65.713999,77.46 C67.701999,77.46 69.689999,75.696 69.689999,72.952 L69.689999,70.432 C69.689999,67.492 67.813999,66.148 65.741999,66.148 C63.697999,66.148 62.045999,68.136 62.045999,71.636 Z M90.1659992,59.792 L92.3499992,59.792 L92.3499992,67.128 L92.4619992,67.128 C93.4419992,65.28 94.7859992,64.412 96.5219992,64.412 C100.105999,64.412 102.345999,67.408 102.345999,71.692 C102.345999,75.78 100.273999,79.28 96.4379992,79.28 C94.6459992,79.28 92.9659992,78.272 92.0419992,76.564 L91.2299992,79 L90.1659992,79 L90.1659992,59.792 Z M99.9939992,72.112 C99.9939992,68.528 98.6779992,66.176 96.2139992,66.176 C94.0859992,66.176 92.3499992,68.332 92.3499992,70.936 L92.3499992,72.84 C92.3499992,75.976 94.2539992,77.516 96.2419992,77.516 C98.7339992,77.516 99.9939992,75.164 99.9939992,72.112 Z M114.305999,64.412 C118.281999,64.412 120.521999,67.464 120.521999,71.748 L120.521999,72.056 L110.189999,72.056 L110.189999,72.392 C110.189999,76.312 112.597999,77.432 114.445999,77.432 C116.293999,77.432 117.637999,76.368 118.225999,74.688 L120.297999,75.108 C119.429999,77.684 117.021999,79.28 114.249999,79.28 C110.273999,79.28 107.725999,76.256 107.725999,71.888 C107.725999,67.688 110.301999,64.412 114.305999,64.412 Z M110.301999,70.432 L118.113999,70.432 C118.113999,67.828 116.629999,66.092 114.277999,66.092 C112.177999,66.092 110.469999,67.828 110.301999,70.432 Z M129.737999,60.912 L129.737999,64.664 L132.901999,64.664 L132.901999,66.4 L129.737999,66.4 L129.737999,75.08 C129.737999,76.788 130.381999,77.516 131.949999,77.516 C132.565999,77.516 133.153999,77.404 133.685999,77.376 L133.685999,79.112 C132.481999,79.224 131.753999,79.28 131.529999,79.28 C128.813999,79.28 127.553999,77.796 127.553999,74.772 L127.553999,66.4 L125.033999,66.4 L125.033999,64.664 L127.553999,64.664 L127.553999,61.136 L129.737999,60.912 Z M141.838,60.912 L141.838,64.664 L145.002,64.664 L145.002,66.4 L141.838,66.4 L141.838,75.08 C141.838,76.788 142.482,77.516 144.05,77.516 C144.666,77.516 145.254,77.404 145.786,77.376 L145.786,79.112 C144.582,79.224 143.854,79.28 143.63,79.28 C140.914,79.28 139.654,77.796 139.654,74.772 L139.654,66.4 L137.134,66.4 L137.134,64.664 L139.654,64.664 L139.654,61.136 L141.838,60.912 Z M156.766,64.412 C160.742,64.412 162.982,67.464 162.982,71.748 L162.982,72.056 L152.65,72.056 L152.65,72.392 C152.65,76.312 155.058,77.432 156.906,77.432 C158.754,77.432 160.098,76.368 160.686,74.688 L162.758,75.108 C161.89,77.684 159.482,79.28 156.71,79.28 C152.734,79.28 150.186,76.256 150.186,71.888 C150.186,67.688 152.762,64.412 156.766,64.412 Z M152.762,70.432 L160.574,70.432 C160.574,67.828 159.09,66.092 156.738,66.092 C154.638,66.092 152.93,67.828 152.762,70.432 Z M175.586,64.384 C175.838,64.384 176.118,64.412 176.426,64.44 L176.426,66.54 L175.95,66.54 C173.374,66.54 171.61,68.78 171.61,71.636 L171.61,79 L169.426,79 L169.426,64.776 L171.386,64.776 L171.386,68.108 L171.442,68.108 C172.31,65.616 173.71,64.384 175.586,64.384 Z M197.63,59.484 C198.19,59.484 199.198,59.568 200.178,59.708 L200.178,61.472 C199.534,61.36 199.086,61.248 198.442,61.248 C196.93,61.248 196.034,61.724 196.034,64.132 L196.034,64.776 L199.338,64.776 L199.338,66.512 L196.034,66.512 L196.034,79 L193.85,79 L193.85,66.512 L191.33,66.512 L191.33,64.776 L193.85,64.776 L193.85,64.356 C193.85,61.22 195.166,59.484 197.63,59.484 Z M210.178,64.412 C212.642,64.412 213.846,64.972 214.63,65.924 C215.47,66.904 215.722,68.108 215.722,70.124 L215.722,76.2 C215.722,76.844 215.722,78.02 216.03,79 L213.846,79 L213.594,76.34 C212.558,78.412 210.85,79.28 208.61,79.28 C205.698,79.28 203.654,77.6 203.654,74.968 C203.654,73.82 204.102,72.7 205.194,71.72 C206.286,70.74 208.162,70.18 211.634,70.18 L213.594,70.18 L213.594,69.48 C213.594,67.044 212.446,66.12 209.982,66.12 C207.714,66.12 206.398,67.016 206.09,68.64 L204.046,68.304 C204.326,65.868 206.79,64.412 210.178,64.412 Z M206.006,75.08 C206.006,76.648 207.266,77.572 209.086,77.572 C211.746,77.572 213.594,75.332 213.594,72.756 L213.594,71.832 L211.55,71.832 C207.938,71.832 206.006,72.952 206.006,75.08 Z M227.962,64.412 C230.902,64.412 233.002,65.672 233.59,67.996 L231.574,68.416 C231.098,66.988 229.726,66.176 227.934,66.176 C226.226,66.176 224.91,66.932 224.91,68.248 C224.91,69.368 225.666,70.04 227.094,70.264 C228.494,70.488 229.754,70.712 230.846,70.964 C233.002,71.468 234.206,72.98 234.206,74.884 C234.206,77.628 231.798,79.28 228.298,79.28 C225.078,79.28 222.698,77.796 222.054,75.22 L224.182,74.8 C224.434,76.452 226.31,77.46 228.466,77.46 C230.566,77.46 231.91,76.592 231.91,75.108 C231.91,74.016 231.098,73.316 229.446,73.008 L226.814,72.532 C224.21,72.056 222.642,70.824 222.642,68.584 C222.642,65.952 224.938,64.412 227.962,64.412 Z M243.338,60.912 L243.338,64.664 L246.502,64.664 L246.502,66.4 L243.338,66.4 L243.338,75.08 C243.338,76.788 243.982,77.516 245.55,77.516 C246.166,77.516 246.754,77.404 247.286,77.376 L247.286,79.112 C246.082,79.224 245.354,79.28 245.13,79.28 C242.414,79.28 241.154,77.796 241.154,74.772 L241.154,66.4 L238.634,66.4 L238.634,64.664 L241.154,64.664 L241.154,61.136 L243.338,60.912 Z M258.266,64.412 C262.242,64.412 264.482,67.464 264.482,71.748 L264.482,72.056 L254.15,72.056 L254.15,72.392 C254.15,76.312 256.558,77.432 258.406,77.432 C260.254,77.432 261.598,76.368 262.186,74.688 L264.258,75.108 C263.39,77.684 260.982,79.28 258.21,79.28 C254.234,79.28 251.686,76.256 251.686,71.888 C251.686,67.688 254.262,64.412 258.266,64.412 Z M254.262,70.432 L262.074,70.432 C262.074,67.828 260.59,66.092 258.238,66.092 C256.138,66.092 254.43,67.828 254.262,70.432 Z M277.086,64.384 C277.338,64.384 277.618,64.412 277.926,64.44 L277.926,66.54 L277.45,66.54 C274.874,66.54 273.11,68.78 273.11,71.636 L273.11,79 L270.926,79 L270.926,64.776 L272.886,64.776 L272.886,68.108 L272.942,68.108 C273.81,65.616 275.21,64.384 277.086,64.384 Z M292.774001,64.776 L294.986001,64.776 L298.066001,75.388 L301.034001,64.776 L302.630001,64.776 L305.822001,75.416 L309.014001,64.776 L310.806001,64.776 L306.718001,79 L304.926001,79 L301.762001,68.444 L298.850001,79 L297.030001,79 L292.774001,64.776 Z M321.226001,64.412 C325.202001,64.412 327.442001,67.464 327.442001,71.748 L327.442001,72.056 L317.110001,72.056 L317.110001,72.392 C317.110001,76.312 319.518001,77.432 321.366001,77.432 C323.214001,77.432 324.558001,76.368 325.146001,74.688 L327.218001,75.108 C326.350001,77.684 323.942001,79.28 321.170001,79.28 C317.194001,79.28 314.646001,76.256 314.646001,71.888 C314.646001,67.688 317.222001,64.412 321.226001,64.412 Z M317.222001,70.432 L325.034001,70.432 C325.034001,67.828 323.550001,66.092 321.198001,66.092 C319.098001,66.092 317.390001,67.828 317.222001,70.432 Z M333.606001,59.792 L335.790001,59.792 L335.790001,67.128 L335.902001,67.128 C336.882001,65.28 338.226001,64.412 339.962001,64.412 C343.546001,64.412 345.786001,67.408 345.786001,71.692 C345.786001,75.78 343.714001,79.28 339.878001,79.28 C338.086001,79.28 336.406001,78.272 335.482001,76.564 L334.670001,79 L333.606001,79 L333.606001,59.792 Z M343.434001,72.112 C343.434001,68.528 342.118001,66.176 339.654001,66.176 C337.526001,66.176 335.790001,68.332 335.790001,70.936 L335.790001,72.84 C335.790001,75.976 337.694001,77.516 339.682001,77.516 C342.174001,77.516 343.434001,75.164 343.434001,72.112 Z M357.242001,64.412 C360.182001,64.412 362.282001,65.672 362.870001,67.996 L360.854001,68.416 C360.378001,66.988 359.006001,66.176 357.214001,66.176 C355.506001,66.176 354.190001,66.932 354.190001,68.248 C354.190001,69.368 354.946001,70.04 356.374001,70.264 C357.774001,70.488 359.034001,70.712 360.126001,70.964 C362.282001,71.468 363.486001,72.98 363.486001,74.884 C363.486001,77.628 361.078001,79.28 357.578001,79.28 C354.358001,79.28 351.978001,77.796 351.334001,75.22 L353.462001,74.8 C353.714001,76.452 355.590001,77.46 357.746001,77.46 C359.846001,77.46 361.190001,76.592 361.190001,75.108 C361.190001,74.016 360.378001,73.316 358.726001,73.008 L356.094001,72.532 C353.490001,72.056 351.922001,70.824 351.922001,68.584 C351.922001,65.952 354.218001,64.412 357.242001,64.412 Z M369.986001,59.792 L372.394001,59.792 L372.394001,62.256 L369.986001,62.256 L369.986001,59.792 Z M370.098001,64.776 L372.282001,64.776 L372.282001,79 L370.098001,79 L370.098001,64.776 Z M382.478001,60.912 L382.478001,64.664 L385.642001,64.664 L385.642001,66.4 L382.478001,66.4 L382.478001,75.08 C382.478001,76.788 383.122001,77.516 384.690001,77.516 C385.306001,77.516 385.894001,77.404 386.426001,77.376 L386.426001,79.112 C385.222001,79.224 384.494001,79.28 384.270001,79.28 C381.554001,79.28 380.294001,77.796 380.294001,74.772 L380.294001,66.4 L377.774001,66.4 L377.774001,64.664 L380.294001,64.664 L380.294001,61.136 L382.478001,60.912 Z M397.406001,64.412 C401.382001,64.412 403.622001,67.464 403.622001,71.748 L403.622001,72.056 L393.290001,72.056 L393.290001,72.392 C393.290001,76.312 395.698001,77.432 397.546001,77.432 C399.394001,77.432 400.738001,76.368 401.326001,74.688 L403.398001,75.108 C402.530001,77.684 400.122001,79.28 397.350001,79.28 C393.374001,79.28 390.826001,76.256 390.826001,71.888 C390.826001,67.688 393.402001,64.412 397.406001,64.412 Z M393.402001,70.432 L401.214001,70.432 C401.214001,67.828 399.730001,66.092 397.378001,66.092 C395.278001,66.092 393.570001,67.828 393.402001,70.432 Z M415.162001,64.412 C418.102001,64.412 420.202001,65.672 420.790001,67.996 L418.774001,68.416 C418.298001,66.988 416.926001,66.176 415.134001,66.176 C413.426001,66.176 412.110001,66.932 412.110001,68.248 C412.110001,69.368 412.866001,70.04 414.294001,70.264 C415.694001,70.488 416.954001,70.712 418.046001,70.964 C420.202001,71.468 421.406001,72.98 421.406001,74.884 C421.406001,77.628 418.998001,79.28 415.498001,79.28 C412.278001,79.28 409.898001,77.796 409.254001,75.22 L411.382001,74.8 C411.634001,76.452 413.510001,77.46 415.666001,77.46 C417.766001,77.46 419.110001,76.592 419.110001,75.108 C419.110001,74.016 418.298001,73.316 416.646001,73.008 L414.014001,72.532 C411.410001,72.056 409.842001,70.824 409.842001,68.584 C409.842001,65.952 412.138001,64.412 415.162001,64.412 Z" id="build-better-faster" fill="#000000"></path>
            <path d="M13.565,12.955 L19.48,12.955 L19.48,19.975 L13.565,19.975 L13.565,32.325 C13.565,33.581673 13.6083329,34.7083284 13.695,35.705 C13.7816671,36.7016717 14.1499967,37.3733316 14.8,37.72 C15.4500032,38.0666684 16.3816606,38.24 17.595,38.24 C18.8083394,38.24 19.5883316,38.2183336 19.935,38.175 L19.935,45 C17.6816554,45.4333355 15.9266729,45.65 14.67,45.65 C11.2466495,45.65 8.7550078,44.8700078 7.195,43.31 C5.6349922,41.7499922 4.855,39.0850188 4.855,35.315 L4.855,19.975 L1.345,19.975 L1.345,12.955 L5.31,12.955 L6.025,3.53 L13.565,2.815 L13.565,12.955 Z M32.415,1.645 L32.415,16.335 C33.281671,14.8616593 34.3866599,13.8108365 35.73,13.1825 C37.07334,12.5541635 38.5899915,12.24 40.28,12.24 C43.1400143,12.24 45.198327,13.0849915 46.455,14.775 C47.7116729,16.4650084 48.34,19.1083153 48.34,22.705 L48.34,45 L39.435,45 L39.435,23.225 C39.435,22.0116606 39.2291687,21.0366704 38.8175,20.3 C38.4058313,19.5633297 37.6150058,19.195 36.445,19.195 C34.9283257,19.195 33.8775029,19.5958293 33.2925,20.3975 C32.7074971,21.1991707 32.415,22.4883244 32.415,24.265 L32.415,45 L23.51,45 L23.51,1.645 L32.415,1.645 Z M79.215,29.14 L79.215,30.44 L62.38,30.44 L62.38,32.455 C62.38,34.9250124 62.7049967,36.7124945 63.355,37.8175 C64.0050032,38.9225055 65.1099922,39.475 66.67,39.475 C68.01334,39.475 69.0641629,39.041671 69.8225,38.175 C70.5808371,37.308329 71.0466658,35.9000097 71.22,33.95 L79.215,34.47 C78.4783296,38.2400188 77.0375107,41.0458241 74.8925,42.8875 C72.7474893,44.7291759 69.941684,45.65 66.475,45.65 C62.2716456,45.65 59.0000117,44.2308475 56.66,41.3925 C54.3199883,38.5541525 53.15,34.5566924 53.15,29.4 C53.15,23.809972 54.352488,19.5525146 56.7575,16.6275 C59.162512,13.7024854 62.3583134,12.24 66.345,12.24 C70.4616872,12.24 73.6358222,13.6808189 75.8675,16.5625 C78.0991778,19.4441811 79.215,23.6366392 79.215,29.14 Z M70.765,25.305 L70.765,24.2 C70.765,22.2066567 70.4183368,20.7008384 69.725,19.6825 C69.0316632,18.6641616 67.9700071,18.155 66.54,18.155 C65.1966599,18.155 64.1783368,18.7508274 63.485,19.9425 C62.7916632,21.1341726 62.445,22.834989 62.445,25.045 L62.445,25.305 L70.765,25.305 Z M111.975,1.645 L123.09,28.555 L123.09,1.645 L130.5,1.645 L130.5,45 L121.985,45 L108.79,13.605 L108.79,45 L101.38,45 L101.38,1.645 L111.975,1.645 Z M162.22,29.14 L162.22,30.44 L145.385,30.44 L145.385,32.455 C145.385,34.9250124 145.709997,36.7124945 146.36,37.8175 C147.010003,38.9225055 148.114992,39.475 149.675,39.475 C151.01834,39.475 152.069163,39.041671 152.8275,38.175 C153.585837,37.308329 154.051666,35.9000097 154.225,33.95 L162.22,34.47 C161.48333,38.2400188 160.042511,41.0458241 157.8975,42.8875 C155.752489,44.7291759 152.946684,45.65 149.48,45.65 C145.276646,45.65 142.005012,44.2308475 139.665,41.3925 C137.324988,38.5541525 136.155,34.5566924 136.155,29.4 C136.155,23.809972 137.357488,19.5525146 139.7625,16.6275 C142.167512,13.7024854 145.363313,12.24 149.35,12.24 C153.466687,12.24 156.640822,13.6808189 158.8725,16.5625 C161.104178,19.4441811 162.22,23.6366392 162.22,29.14 Z M153.77,25.305 L153.77,24.2 C153.77,22.2066567 153.423337,20.7008384 152.73,19.6825 C152.036663,18.6641616 150.975007,18.155 149.545,18.155 C148.20166,18.155 147.183337,18.7508274 146.49,19.9425 C145.796663,21.1341726 145.45,22.834989 145.45,25.045 L145.45,25.305 L153.77,25.305 Z M172.295,12.955 L176.065,32.455 L179.64,12.955 L188.35,12.955 L191.21,32.455 L195.565,12.955 L202.585,12.955 L194.525,45 L187.05,45 L182.955,23.29 L178.925,45 L171.645,45 L163.585,12.955 L172.295,12.955 Z M222.41,1.645 L233.785,1.645 C240.155032,1.645 244.899984,3.36748277 248.02,6.8125 C251.140016,10.2575172 252.7,15.6632965 252.7,23.03 C252.7,29.7467003 251.259181,35.0874802 248.3775,39.0525 C245.495819,43.0175198 241.36836,45 235.995,45 L222.41,45 L222.41,1.645 Z M231.9,37.525 L234.565,37.525 C237.295014,37.525 239.320827,36.3333453 240.6425,33.95 C241.964173,31.5666547 242.625,27.8833583 242.625,22.9 C242.625,17.9599753 241.942507,14.4283439 240.5775,12.305 C239.212493,10.181656 237.165014,9.12 234.435,9.12 L231.9,9.12 L231.9,37.525 Z M262.905,12.955 L267.26,32.585 L271.42,12.955 L279.09,12.955 L270.055,43.505 C268.581659,49.1383615 267.075841,52.6916593 265.5375,54.165 C263.999159,55.6383407 261.865014,56.375 259.135,56.375 C258.614997,56.375 258.138335,56.3533336 257.705,56.31 C257.271664,56.2666665 256.470006,56.1150013 255.3,55.855 L255.3,48.835 C256.123337,48.9650007 256.946663,49.03 257.77,49.03 C259.633343,49.03 260.857497,48.7375029 261.4425,48.1525 C262.027503,47.5674971 262.601664,46.3216762 263.165,44.415 L254,12.955 L262.905,12.955 Z M306.26,21.015 L306.26,45 L297.355,45 L297.355,23.615 C297.355,22.0549922 297.138335,20.9283368 296.705,20.235 C296.271664,19.5416632 295.470006,19.195 294.3,19.195 C292.783326,19.195 291.743336,19.6391622 291.18,20.5275 C290.616664,21.4158378 290.335,22.8349903 290.335,24.785 L290.335,45 L281.43,45 L281.43,12.955 L289.88,12.955 L289.88,17.31 C290.790005,15.4033238 291.873327,14.0816704 293.13,13.345 C294.386673,12.6083297 295.968324,12.24 297.875,12.24 C300.605014,12.24 302.684993,13.009159 304.115,14.5475 C305.545007,16.085841 306.26,18.2416528 306.26,21.015 Z M329.075,45 C328.858332,44.3933303 328.728334,43.6891707 328.685,42.8875 C328.641666,42.0858293 328.62,41.1433387 328.62,40.06 C327.579995,41.9666762 326.35584,43.3749955 324.9475,44.285 C323.53916,45.1950046 321.816677,45.65 319.78,45.65 C317.223321,45.65 315.186674,44.8700078 313.67,43.31 C312.153326,41.7499922 311.395,39.6050136 311.395,36.875 C311.395,33.0183141 312.70582,30.1691759 315.3275,28.3275 C317.94918,26.4858241 322.141638,25.4133348 327.905,25.11 L327.905,23.81 C327.905,21.3833212 327.645003,19.83417 327.125,19.1625 C326.604997,18.49083 325.803339,18.155 324.72,18.155 C323.506661,18.155 322.607503,18.5449961 322.0225,19.325 C321.437497,20.1050039 321.058334,21.361658 320.885,23.095 L312.5,22.25 C312.803335,19.1733179 314.114155,16.7358423 316.4325,14.9375 C318.750845,13.1391577 321.751648,12.24 325.435,12.24 C328.988351,12.24 331.77249,13.1174912 333.7875,14.8725 C335.80251,16.6275088 336.81,19.238316 336.81,22.705 L336.81,38.76 C336.81,40.2333407 336.8425,41.4574951 336.9075,42.4325 C336.9725,43.4075049 337.113332,44.2633297 337.33,45 L329.075,45 Z M327.905,29.66 C325.21832,29.9633349 323.333339,30.548329 322.25,31.415 C321.166661,32.281671 320.625,33.6899903 320.625,35.64 C320.625,36.8100059 320.852498,37.7849961 321.3075,38.565 C321.762502,39.3450039 322.531661,39.735 323.615,39.735 C324.95834,39.735 326.009163,39.0741733 326.7675,37.7525 C327.525837,36.4308267 327.905,34.5133459 327.905,32 L327.905,29.66 Z M366.58,17.31 C367.31667,15.576658 368.32416,14.2983374 369.6025,13.475 C370.88084,12.6516625 372.49499,12.24 374.445,12.24 C377.391681,12.24 379.493327,13.0199922 380.75,14.58 C382.006673,16.1400078 382.635,18.5016509 382.635,21.665 L382.635,45 L373.73,45 L373.73,22.9 C373.73,21.643327 373.513335,20.7116697 373.08,20.105 C372.646664,19.4983303 371.910005,19.195 370.87,19.195 C369.569994,19.195 368.681669,19.628329 368.205,20.495 C367.728331,21.361671 367.49,22.8783225 367.49,25.045 L367.49,45 L358.585,45 L358.585,24.265 C358.585,22.4883244 358.433335,21.2100039 358.13,20.43 C357.826665,19.6499961 357.046673,19.26 355.79,19.26 C354.359993,19.26 353.428336,19.7799948 352.995,20.82 C352.561665,21.8600052 352.345,23.5499883 352.345,25.89 L352.345,45 L343.44,45 L343.44,12.955 L351.89,12.955 L351.89,17.31 C353.363341,13.9299831 355.963315,12.24 359.69,12.24 C361.596676,12.24 363.113328,12.6408293 364.24,13.4425 C365.366672,14.2441707 366.146664,15.5333244 366.58,17.31 Z M397.78,1.385 L397.78,10.225 L388.745,10.225 L388.745,1.385 L397.78,1.385 Z M397.715,12.955 L397.715,45 L388.81,45 L388.81,12.955 L397.715,12.955 Z M428.2,24.72 L419.88,25.045 C419.749999,23.0083231 419.435836,21.5025049 418.9375,20.5275 C418.439164,19.5524951 417.583339,19.065 416.37,19.065 C414.809992,19.065 413.672504,19.8233257 412.9575,21.34 C412.242496,22.8566742 411.885,25.2616502 411.885,28.555 C411.885,32.021684 412.231663,34.5349922 412.925,36.095 C413.618337,37.6550078 414.701659,38.435 416.175,38.435 C417.345006,38.435 418.23333,37.9691713 418.84,37.0375 C419.44667,36.1058287 419.793333,34.6000104 419.88,32.52 L428.2,33.04 C427.809998,37.373355 426.564177,40.5583231 424.4625,42.595 C422.360823,44.6316768 419.425019,45.65 415.655,45.65 C411.494979,45.65 408.331677,44.2091811 406.165,41.3275 C403.998322,38.4458189 402.915,34.3400266 402.915,29.01 C402.915,23.5933062 404.052489,19.4441811 406.3275,16.5625 C408.602511,13.6808189 411.863312,12.24 416.11,12.24 C419.750018,12.24 422.642489,13.344989 424.7875,15.555 C426.932511,17.765011 428.069999,20.8199805 428.2,24.72 Z" id="the-New-Dynamic" fill="#B50938"></path>
        </g>
    </g>
</svg>