<?xml version="1.0" standalone="no"?>
<!DOCTYPE svg PUBLIC "-//W3C//DTD SVG 20010904//EN"
 "http://www.w3.org/TR/2001/REC-SVG-20010904/DTD/svg10.dtd">
<svg version="1.0" xmlns="http://www.w3.org/2000/svg"
 width="512.000000pt" height="512.000000pt" viewBox="0 0 512.000000 512.000000"
 preserveAspectRatio="xMidYMid meet">
<metadata>
Created by potrace 1.11, written by Peter Selinger 2001-2013
</metadata>
<g transform="translate(0.000000,512.000000) scale(0.100000,-0.100000)"
fill="#000000" stroke="none">
<path d="M570 3485 c0 -25 -3 -44 -7 -44 -26 4 -33 -4 -33 -41 0 -33 3 -40 20
-40 19 0 20 -7 20 -102 0 -92 3 -106 23 -131 17 -21 32 -29 62 -31 63 -4 89
12 93 56 3 37 2 37 -31 31 -21 -3 -37 -1 -42 7 -4 6 -8 47 -8 91 l-2 79 41 0
41 0 1 43 1 43 -39 -3 c-40 -2 -40 -2 -41 35 -1 20 -1 40 0 45 0 4 -21 7 -49
7 l-50 0 0 -45z"/>
<path d="M899 3423 c-3 -94 -4 -1840 -1 -1850 3 -10 53 -13 207 -13 l203 0 0
590 c0 325 2 593 4 595 4 5 44 -46 339 -435 93 -124 175 -232 182 -240 7 -8
97 -127 201 -263 l189 -248 651 4 c358 2 662 6 676 10 14 4 49 12 79 18 332
69 618 333 702 649 33 123 43 304 24 425 -55 355 -308 635 -668 739 -49 14
-105 29 -125 32 -62 11 -1384 16 -1391 5 -3 -5 -6 -266 -6 -580 1 -314 0 -571
-1 -571 0 0 -75 97 -165 216 -90 119 -189 249 -219 288 -31 39 -134 175 -230
301 -95 127 -195 258 -223 293 l-49 62 -189 0 -189 0 -1 -27z m1728 -919 l0
-925 -26 3 -26 3 0 915 c-1 503 1 918 3 923 2 4 13 7 26 7 l23 0 0 -926z m846
562 c252 -42 428 -232 455 -489 24 -234 -59 -433 -226 -544 -118 -78 -196 -95
-458 -97 l-200 -2 -1 566 c0 311 4 567 8 570 11 7 376 4 422 -4z"/>
</g>
</svg>
