<?xml version="1.0" encoding="utf-8"?>
<!-- Generator: Adobe Illustrator 15.0.2, SVG Export Plug-In  -->
<!DOCTYPE svg PUBLIC "-//W3C//DTD SVG 1.1//EN" "http://www.w3.org/Graphics/SVG/1.1/DTD/svg11.dtd" [
	<!ENTITY ns_flows "http://ns.adobe.com/Flows/1.0/">
]>
<svg version="1.1"
	 xmlns="http://www.w3.org/2000/svg" xmlns:xlink="http://www.w3.org/1999/xlink" xmlns:a="http://ns.adobe.com/AdobeSVGViewerExtensions/3.0/"
	 x="0px" y="0px" width="30px" height="30px" viewBox="0 0 30 30" enable-background="new 0 0 30 30" xml:space="preserve">
<defs>
</defs>
<path display="none" fill="#6D6E70" d="M22.299,22.508h-5.791c-4.12,0-4.777-1.822-4.777-3.514c0-0.803,0.05-2.125,0.099-3.745
	h9.676c1.447,0,4.211-0.593,4.211-3.242c0-2.646-1.275-4.382-2.984-4.382H11.95C11.939,3.806,11.69,0,7.96,0
	C6.417,0,5.166,0.634,4.638,2.208c-0.693,2.068-0.51,4.489-0.5,6.642c0.002,0.408,0.004,0.82,0.005,1.23
	c0.005,1.409,0.033,2.828,0.04,4.246c0.003,1.525,0.005,3.051,0.005,4.574c0,8.541,7.762,10.961,9.251,10.961S20.762,30,21.813,30
	c1.054,0,4.078-0.279,4.078-3.337C25.892,23.604,23.746,22.508,22.299,22.508z"/>
<path fill="#6D6E70" d="M23.997,8c-0.019-0.009-0.038-0.03-0.058-0.049c-1.121-1-2.439-1.478-3.955-1.42l-0.047-0.103
	c0.01-0.009,0.019-0.009,0.028-0.009c1.375-0.301,2.188-0.609,2.432-0.945c0.084-0.272-0.019-0.421-0.318-0.458
	C21.388,5.1,20.751,5.24,20.181,5.456c0.721-0.439,1.001-0.749,0.842-0.908c-0.711,0.018-1.478,0.366-2.282,1.048
	c0.299-0.487,0.412-0.749,0.337-0.796c-0.383,0.253-0.721,0.524-1.01,0.813c-0.608,0.646-1.095,1.244-1.469,1.787L16.58,7.448
	c-0.963,1.486-1.636,2.982-2.039,4.507l-0.149,0.113l-0.028,0.027c-0.581-0.692-1.272-1.271-2.104-1.741
	c-0.982-0.606-2.132-1.187-3.46-1.747c-1.449-0.711-2.918-1.3-4.405-1.759c-0.009,1.581,0.804,2.843,2.423,3.76v0.028
	c-0.571-0.011-1.123,0.074-1.656,0.234c0.103,1.467,1.197,2.478,3.273,3.037l-0.01,0.029c-0.813-0.046-1.487,0.226-2.01,0.785
	c0.683,1.272,1.889,1.88,3.638,1.833c-0.346,0.169-0.618,0.354-0.795,0.562c-0.318,0.318-0.421,0.693-0.318,1.122
	c0.374,0.646,1.047,0.943,2.039,0.898l0,0l0.056,0.065c-0.01,0.009-0.019,0.019-0.028,0.027c-1.711,1.684-3.778,2.441-6.201,2.282
	l-0.038,0.019C3.292,21.521,1.711,20.85,0,19.502c1.721,2.355,4.002,4.058,6.827,5.125c3.235,1.02,6.472,1.094,9.697,0.224h0.056
	c3.134-0.86,5.789-2.628,7.978-5.302c1.01-1.403,1.646-2.739,1.898-4.021c1.636,0.056,2.814-0.393,3.544-1.346l-0.019-0.029
	c-0.542,0.187-1.608,0.132-3.189-0.177v-0.169c0-0.009,0-0.009,0.011,0c1.729-0.187,2.749-0.719,3.076-1.6
	c-1.207,0.449-2.395,0.458-3.573,0.038C26.091,10.692,25.325,9.28,23.997,8z"/>
<path display="none" fill="#6D6E70" d="M21.97,9.714h-4.746V6.601c0-1.169,0.773-1.442,1.319-1.442c0.545,0,3.351,0,3.351,0v-5.14
	L17.279,0c-5.122,0-6.288,3.834-6.288,6.288v3.426H8.03v5.297h2.962c0,6.799,0,14.989,0,14.989h6.232c0,0,0-8.271,0-14.989h4.202
	L21.97,9.714z"/>
<path display="none" fill="#6D6E70" d="M16.125,13.531v-0.047c-0.01,0.016-0.021,0.031-0.03,0.047H16.125z"/>
<path display="none" fill="#6D6E70" d="M27.701,0H2.298C1.082,0,0.095,0.962,0.095,2.149v25.702C0.095,29.036,1.082,30,2.298,30
	h25.403c1.218,0,2.203-0.964,2.203-2.148V2.149C29.904,0.962,28.919,0,27.701,0z M9.131,25.112H4.628V11.567h4.503V25.112z
	 M6.88,9.717H6.85c-1.51,0-2.487-1.04-2.487-2.34c0-1.329,1.008-2.34,2.547-2.34s2.488,1.012,2.518,2.34
	C9.428,8.677,8.449,9.717,6.88,9.717z M25.366,25.112h-4.503v-7.248c0-1.819-0.65-3.062-2.28-3.062c-1.243,0-1.984,0.837-2.31,1.646
	c-0.119,0.289-0.148,0.693-0.148,1.098v7.565h-4.502c0,0,0.059-12.275,0-13.545h4.502v1.917c0.599-0.923,1.668-2.236,4.059-2.236
	c2.962,0,5.183,1.937,5.183,6.098V25.112z"/>
<path display="none" fill="#6D6E70" d="M24.52,14.633H5.48c-3.026,0-5.48,2.456-5.48,5.481v4.405C0,27.546,2.454,30,5.48,30h19.04
	c3.027,0,5.48-2.454,5.48-5.48v-4.405C30,17.089,27.547,14.633,24.52,14.633z M9.48,18.063H7.71v8.795H6v-8.795H4.231v-1.496H9.48
	V18.063z M14.481,26.857h-1.518v-0.832c-0.281,0.309-0.572,0.543-0.876,0.701c-0.303,0.165-0.596,0.243-0.881,0.243
	c-0.354,0-0.615-0.112-0.794-0.34c-0.176-0.227-0.267-0.563-0.267-1.017v-6.35h1.518v5.826c0,0.18,0.033,0.309,0.094,0.389
	c0.066,0.083,0.17,0.12,0.312,0.12c0.109,0,0.252-0.052,0.423-0.158c0.172-0.107,0.328-0.243,0.471-0.408v-5.769h1.518V26.857z
	 M19.988,25.29c0,0.536-0.119,0.948-0.357,1.236c-0.236,0.287-0.582,0.429-1.031,0.429c-0.299,0-0.563-0.053-0.794-0.164
	c-0.231-0.11-0.451-0.28-0.648-0.516v0.582h-1.534V16.566h1.534v3.313c0.205-0.229,0.423-0.406,0.649-0.526
	c0.232-0.122,0.465-0.181,0.701-0.181c0.48,0,0.848,0.16,1.1,0.483c0.254,0.324,0.381,0.798,0.381,1.42V25.29z M25.251,23.243
	h-2.902v1.432c0,0.399,0.048,0.677,0.147,0.832c0.102,0.154,0.271,0.23,0.515,0.23c0.252,0,0.428-0.065,0.528-0.197
	c0.098-0.132,0.15-0.419,0.15-0.865v-0.346h1.562v0.39c0,0.777-0.188,1.364-0.573,1.76c-0.377,0.391-0.945,0.587-1.702,0.587
	c-0.68,0-1.216-0.208-1.605-0.626c-0.39-0.414-0.587-0.989-0.587-1.721v-3.412c0-0.655,0.215-1.195,0.646-1.609
	c0.43-0.414,0.98-0.621,1.661-0.621c0.695,0,1.229,0.191,1.603,0.575c0.372,0.386,0.559,0.937,0.559,1.655V23.243z"/>
<path display="none" fill="#6D6E70" d="M23.025,20.076c-0.242,0-0.415,0.068-0.521,0.211c-0.106,0.133-0.156,0.36-0.156,0.68v0.768
	h1.341v-0.768c0-0.319-0.055-0.547-0.16-0.68C23.428,20.145,23.256,20.076,23.025,20.076z"/>
<path display="none" fill="#6D6E70" d="M17.792,20.051c-0.108,0-0.217,0.022-0.322,0.073c-0.105,0.049-0.21,0.128-0.313,0.232v4.729
	c0.122,0.123,0.243,0.217,0.359,0.271c0.117,0.053,0.238,0.082,0.366,0.082c0.187,0,0.322-0.054,0.41-0.163
	c0.086-0.107,0.131-0.279,0.131-0.522v-3.921c0-0.258-0.052-0.451-0.159-0.585C18.154,20.117,17.996,20.051,17.792,20.051z"/>
<polygon display="none" fill="#6D6E70" points="7.973,11.668 9.896,11.668 9.896,6.963 12.136,0.328 10.181,0.328 8.99,4.861 
	8.87,4.861 7.62,0.328 5.682,0.328 7.973,7.175 "/>
<path display="none" fill="#6D6E70" d="M14.741,11.879c0.776,0,1.386-0.204,1.831-0.611c0.44-0.409,0.662-0.968,0.662-1.684V5.263
	c0-0.637-0.227-1.16-0.675-1.564c-0.454-0.404-1.033-0.606-1.74-0.606c-0.776,0-1.396,0.191-1.855,0.575s-0.689,0.898-0.689,1.548
	v4.336c0,0.711,0.225,1.274,0.673,1.696C13.396,11.668,13.994,11.879,14.741,11.879z M14.033,5.152c0-0.182,0.065-0.329,0.194-0.444
	c0.132-0.112,0.3-0.167,0.509-0.167c0.227,0,0.409,0.055,0.548,0.167c0.139,0.115,0.209,0.262,0.209,0.444v4.557
	c0,0.224-0.068,0.4-0.205,0.529c-0.137,0.128-0.32,0.191-0.552,0.191c-0.226,0-0.4-0.062-0.521-0.189
	c-0.121-0.126-0.182-0.302-0.182-0.531V5.152z"/>
<path display="none" fill="#6D6E70" d="M19.813,11.789c0.321,0,0.651-0.092,0.991-0.268c0.343-0.178,0.671-0.439,0.983-0.78v0.927
	h1.71V3.303h-1.71v6.349c-0.158,0.182-0.335,0.331-0.525,0.45c-0.193,0.117-0.353,0.176-0.478,0.176
	c-0.161,0-0.278-0.044-0.348-0.135c-0.071-0.088-0.11-0.231-0.11-0.427V3.303H18.62v6.991c0,0.498,0.101,0.871,0.299,1.118
	C19.121,11.662,19.416,11.789,19.813,11.789z"/>
<path display="none" fill="#6D6E70" d="M27.701,0H2.298C1.082,0,0.095,0.962,0.095,2.149v25.702C0.095,29.036,1.082,30,2.298,30
	h25.403c1.218,0,2.203-0.964,2.203-2.148V2.149C29.904,0.962,28.919,0,27.701,0z"/>
<path display="none" fill="#6D6E70" d="M22.933,8.457c0.524,0.644,0.887,1.408,1.088,2.255c0.281-0.202,0.522-0.443,0.725-0.685
	c0.161-0.322,0.282-0.686,0.322-1.007c0-0.806-0.242-1.49-0.846-1.974c-0.483-0.403-1.047-0.604-1.691-0.523
	c-0.402,0-0.806,0.201-1.168,0.443C21.967,7.369,22.49,7.853,22.933,8.457z"/>
<path display="none" fill="#6D6E70" d="M9.886,17.96v-0.04C9.805,17.96,9.765,18,9.725,18.08C9.362,18.362,9,18.806,8.638,19.369
	c-0.443,0.725-0.563,1.53-0.483,2.336c0.081,0.604,0.241,1.167,0.524,1.69c0.322,0.483,0.765,0.927,1.329,1.329
	c-0.202-0.685-0.322-1.449-0.362-2.255C9.483,20.899,9.604,19.369,9.886,17.96z"/>
<path display="none" fill="#6D6E70" d="M8.597,7.127C8.154,6.805,7.59,6.644,6.986,6.685C6.463,6.765,5.98,7.007,5.618,7.409
	c-0.443,0.443-0.645,0.927-0.645,1.57v0.041c0.041,0.805,0.402,1.449,1.007,1.933c0.04-0.483,0.201-0.926,0.402-1.369
	C6.986,8.617,7.712,7.812,8.597,7.127z"/>
<path display="none" fill="#6D6E70" d="M22.61,3.503c0.403,0,0.726-0.162,1.048-0.403c0.281-0.322,0.402-0.685,0.402-1.087
	c0-0.403-0.121-0.725-0.402-1.007c-0.322-0.322-0.645-0.443-1.048-0.443c-0.401,0-0.725,0.121-1.046,0.443
	c-0.282,0.282-0.443,0.604-0.443,1.007c0,0.402,0.161,0.765,0.443,1.087C21.886,3.342,22.209,3.503,22.61,3.503z"/>
<path display="none" fill="#6D6E70" d="M8.477,29.113c-0.081-0.441,0.041-0.845,0.322-1.167c0.362-0.604,1.006-0.886,1.853-0.886
	h0.081c0.04,0,0.04-0.041,0.04-0.041v-0.08c-0.161-0.362-0.322-0.725-0.442-1.127c-0.04,0-0.04-0.041-0.04-0.041
	c-0.081-0.04-0.242-0.161-0.323-0.241h-0.04c-1.45-1.007-2.255-2.214-2.457-3.705c-0.201-1.61,0.403-3.02,1.772-4.188
	c0.121-0.121,0.362-0.282,0.725-0.524l0.483-0.401L9.765,16.35c-0.363-0.162-0.725-0.403-1.087-0.645
	c-1.692-1.128-2.578-2.456-2.618-4.067v-0.081H5.98c-0.403-0.201-0.725-0.483-1.047-0.885c-0.08-0.041-0.08-0.162-0.161-0.202
	v-0.362C4.53,9.664,4.369,9.182,4.369,8.657c0-0.604,0.161-1.087,0.402-1.53V7.45c0.161-0.161,0.283-0.322,0.443-0.523
	c0.563-0.564,1.249-0.805,2.014-0.805c0.725,0,1.328,0.201,1.853,0.644h0.08c1.651-1.007,3.624-1.45,5.839-1.45h0.081l0.041-0.04
	l0.04-0.041l1.248-4.711l4.269,0.645c0.04,0.04,0.04,0.04,0.04,0c0.041-0.041,0.041-0.041,0.041-0.041
	c0.12-0.201,0.241-0.403,0.402-0.564C21.564,0.201,22.047,0,22.61,0H2.298C1.082,0,0.095,0.962,0.095,2.149v25.702
	C0.095,29.036,1.082,30,2.298,30h6.501l-0.121-0.242C8.557,29.517,8.477,29.275,8.477,29.113z"/>
<path display="none" fill="#6D6E70" d="M19.631,24.604c1.047-0.765,1.611-1.771,1.771-2.939c0.081-0.845-0.08-1.57-0.482-2.295
	c-0.202-0.403-0.604-0.846-1.088-1.248l0.04,0.08c0.201,1.329,0.242,2.778,0.081,4.269C19.913,23.234,19.752,23.96,19.631,24.604z"
	/>
<path display="none" fill="#6D6E70" d="M19.027,24.04c0.281-1.409,0.322-2.819,0.201-4.269c-0.121-1.007-0.282-1.893-0.523-2.697
	c-0.645,0.16-1.208,0.281-1.691,0.361c-0.846,0.121-1.53,0.242-2.135,0.202c-0.765-0.04-1.409-0.081-1.973-0.121
	c-0.604-0.121-1.248-0.241-1.893-0.442c-0.362,1.208-0.564,2.496-0.564,3.946c-0.041,0.725,0,1.409,0.041,2.094
	c0.04,0.321,0.12,0.685,0.161,1.007c0.12,0.604,0.242,1.127,0.443,1.691c0.161,0.442,0.322,0.926,0.523,1.408
	c0.363,0.887,0.967,1.652,1.732,2.215h0.926c0.041,0,0.041,0,0.041,0h1.932c0.242-0.16,0.443-0.361,0.645-0.604
	c0.564-0.645,1.007-1.369,1.369-2.134C18.624,25.853,18.865,25.006,19.027,24.04z"/>
<path display="none" fill="#6D6E70" d="M18.664,27.705c-0.362,0.645-0.765,1.207-1.207,1.73l2.858-0.04
	c0.041-0.161,0.081-0.321,0.081-0.522c-0.04-0.242-0.081-0.483-0.282-0.645C19.712,27.825,19.229,27.664,18.664,27.705z"/>
<path display="none" fill="#6D6E70" d="M27.701,0H22.61c0.524,0,1.048,0.201,1.45,0.563c0.402,0.403,0.604,0.886,0.604,1.45
	c0,0.604-0.201,1.087-0.604,1.49s-0.926,0.604-1.45,0.604c-0.563,0-1.087-0.201-1.449-0.604c-0.402-0.403-0.604-0.886-0.604-1.49
	V1.812V1.731c-0.041,0-0.041,0-0.041,0l-3.624-0.523c0,0,0,0-0.04,0c0,0-0.04,0.041-0.04,0.081l-1.088,3.906c0,0.04,0,0.04,0,0.04
	l0.081,0.081h0.04c1.853,0.121,3.463,0.523,4.872,1.369c0,0.04,0.041,0.04,0.041,0.04l0.08-0.04
	c0.523-0.523,1.168-0.765,1.893-0.765c0.806,0,1.49,0.282,2.055,0.846c0.563,0.564,0.845,1.249,0.845,2.053
	c0,0.604-0.161,1.168-0.563,1.651c-0.322,0.403-0.644,0.685-1.047,0.886l-0.081,0.04v0.04c0,1.651-0.886,3.102-2.617,4.27
	c-0.362,0.241-0.725,0.482-1.088,0.645c-0.12,0.08-0.402,0.201-0.885,0.401c0,0.041,0.321,0.323,0.966,0.887
	c1.368,1.208,1.973,2.617,1.771,4.188c-0.201,1.491-1.047,2.698-2.536,3.705l-0.242,0.12c0,0,0,0.041,0,0.081
	c-0.161,0.403-0.281,0.806-0.483,1.208c0,0.041,0,0.08,0,0.08s0,0.041,0.04,0.041h0.041c0.806,0.04,1.409,0.322,1.771,0.886
	c0.242,0.322,0.362,0.685,0.282,1.167c-0.04,0.202-0.081,0.403-0.201,0.645L20.678,30h7.023c1.218,0,2.203-0.964,2.203-2.148V2.149
	C29.904,0.962,28.919,0,27.701,0z"/>
<path display="none" fill="#6D6E70" d="M9.402,28.229c-0.161,0.121-0.241,0.281-0.321,0.483c-0.041,0.241,0,0.442,0.04,0.684
	l3.02,0.04c-0.483-0.523-0.886-1.086-1.208-1.73C10.369,27.664,9.805,27.825,9.402,28.229z"/>
<path display="none" fill="#6D6E70" d="M16.088,16.751c1.207-0.079,2.375-0.361,3.463-0.845c0.563-0.242,1.087-0.564,1.57-0.887
	c0.443-0.321,0.846-0.684,1.207-1.087h-0.04c0.122-0.161,0.242-0.282,0.362-0.442c0.363-0.564,0.564-1.168,0.604-1.813
	s-0.08-1.248-0.362-1.813c-0.362-0.765-0.846-1.368-1.49-1.852c-0.967-0.765-2.053-1.289-3.221-1.611C17.094,6.121,16.088,6,15,6
	c-1.087,0-2.134,0.121-3.181,0.402c-1.167,0.322-2.255,0.846-3.222,1.611C8.194,8.295,7.873,8.617,7.59,8.979
	c-0.321,0.403-0.523,0.846-0.644,1.329c-0.161,0.564-0.201,1.087-0.161,1.651c0.081,0.523,0.282,1.007,0.604,1.53
	c0.362,0.604,0.886,1.087,1.49,1.529c1.087,0.726,2.215,1.289,3.503,1.531C13.631,16.792,14.839,16.873,16.088,16.751z
	 M17.014,9.221c0.281-0.281,0.644-0.402,1.088-0.402c0.401,0,0.724,0.121,1.006,0.402c0.322,0.282,0.443,0.645,0.443,1.048
	s-0.121,0.765-0.443,1.047c-0.282,0.322-0.604,0.442-1.006,0.442c-0.444,0-0.807-0.12-1.088-0.442
	c-0.281-0.282-0.403-0.644-0.403-1.047S16.732,9.503,17.014,9.221z M10.047,10.269c0-0.403,0.121-0.766,0.403-1.048
	c0.322-0.281,0.645-0.402,1.047-0.402c0.402,0,0.765,0.121,1.087,0.402c0.282,0.282,0.443,0.645,0.443,1.048
	s-0.161,0.765-0.443,1.047c-0.322,0.322-0.685,0.442-1.087,0.442c-0.403,0-0.726-0.12-1.047-0.442
	C10.168,11.033,10.047,10.672,10.047,10.269z M10.691,13.168h0.765c0.161,0.281,0.362,0.523,0.645,0.725
	c0.04,0.04,0.04,0.04,0.08,0.08c0.725,0.524,1.651,0.807,2.658,0.807c1.048,0,1.894-0.282,2.618-0.807c0.04,0,0.04,0,0.04-0.04
	c0.322-0.241,0.563-0.483,0.765-0.765h0.725c-0.201,0.482-0.563,0.926-1.087,1.329c-0.846,0.604-1.853,0.966-3.061,0.966
	c-1.167,0-2.215-0.362-3.061-0.966C11.255,14.094,10.893,13.691,10.691,13.168z"/>
<path display="none" fill="#6D6E70" d="M19.872,18.201l-0.04-0.08c0.483,0.402,0.886,0.845,1.088,1.248
	c0.402,0.725,0.563,1.45,0.482,2.295c-0.16,1.168-0.725,2.175-1.771,2.939c0.121-0.644,0.282-1.369,0.322-2.134
	C20.114,20.979,20.073,19.53,19.872,18.201z M21.564,1.007c0.321-0.322,0.645-0.443,1.046-0.443c0.403,0,0.726,0.121,1.048,0.443
	c0.281,0.282,0.402,0.604,0.402,1.007c0,0.402-0.121,0.765-0.402,1.087c-0.322,0.241-0.645,0.403-1.048,0.403
	c-0.401,0-0.725-0.162-1.046-0.403c-0.282-0.322-0.443-0.685-0.443-1.087C21.121,1.61,21.282,1.289,21.564,1.007z M8.678,23.396
	c-0.283-0.523-0.443-1.087-0.524-1.69c-0.08-0.806,0.04-1.611,0.483-2.336C9,18.806,9.362,18.362,9.725,18.08
	c0.04-0.08,0.08-0.12,0.161-0.16v0.04c-0.282,1.409-0.403,2.939-0.242,4.51c0.04,0.806,0.161,1.57,0.362,2.255
	C9.443,24.322,9,23.879,8.678,23.396z M22.53,6.523c0.645-0.08,1.208,0.121,1.691,0.523c0.604,0.483,0.846,1.168,0.846,1.974
	c-0.04,0.321-0.161,0.685-0.322,1.007c-0.202,0.241-0.443,0.482-0.725,0.685c-0.201-0.847-0.563-1.611-1.088-2.255
	c-0.442-0.604-0.966-1.088-1.57-1.491C21.725,6.725,22.128,6.523,22.53,6.523z M5.98,10.953C5.375,10.47,5.014,9.825,4.973,9.021
	V8.979c0-0.644,0.201-1.127,0.645-1.57C5.98,7.007,6.463,6.765,6.986,6.685C7.59,6.644,8.154,6.805,8.597,7.127
	c-0.885,0.685-1.611,1.49-2.215,2.457C6.181,10.027,6.02,10.47,5.98,10.953z M8.879,15.02c-0.604-0.442-1.128-0.926-1.49-1.529
	c-0.322-0.523-0.523-1.007-0.604-1.53c-0.04-0.564,0-1.087,0.161-1.651C7.067,9.825,7.269,9.383,7.59,8.979
	c0.283-0.362,0.604-0.685,1.007-0.966c0.966-0.765,2.054-1.289,3.222-1.611C12.866,6.121,13.913,6,15,6
	c1.088,0,2.094,0.121,3.182,0.402c1.168,0.322,2.254,0.846,3.221,1.611c0.645,0.483,1.128,1.087,1.49,1.852
	c0.282,0.564,0.402,1.168,0.362,1.813s-0.241,1.248-0.604,1.813c-0.12,0.16-0.24,0.281-0.362,0.442h0.04
	c-0.361,0.403-0.764,0.766-1.207,1.087c-0.483,0.322-1.007,0.645-1.57,0.887c-1.088,0.483-2.256,0.766-3.463,0.845
	c-1.249,0.122-2.457,0.041-3.705-0.2C11.094,16.309,9.966,15.745,8.879,15.02z M9.121,29.396c-0.04-0.241-0.081-0.442-0.04-0.684
	c0.08-0.202,0.161-0.362,0.321-0.483c0.403-0.403,0.967-0.564,1.53-0.523c0.322,0.645,0.726,1.207,1.208,1.73L9.121,29.396z
	 M16.248,29.436h-1.932c0,0,0,0-0.041,0h-0.926c-0.765-0.563-1.369-1.328-1.732-2.215c-0.201-0.482-0.362-0.966-0.523-1.408
	c-0.201-0.564-0.323-1.088-0.443-1.691c-0.041-0.322-0.121-0.686-0.161-1.007c-0.041-0.685-0.081-1.369-0.041-2.094
	c0-1.45,0.202-2.738,0.564-3.946c0.645,0.201,1.289,0.321,1.893,0.442c0.563,0.04,1.208,0.081,1.973,0.121
	c0.604,0.04,1.289-0.081,2.135-0.202c0.483-0.08,1.047-0.201,1.691-0.361c0.241,0.805,0.402,1.69,0.523,2.697
	c0.121,1.449,0.08,2.859-0.201,4.269c-0.162,0.966-0.403,1.813-0.766,2.658c-0.362,0.765-0.805,1.489-1.369,2.134
	C16.691,29.074,16.49,29.275,16.248,29.436z M20.315,29.396l-2.858,0.04c0.442-0.523,0.845-1.086,1.207-1.73
	c0.564-0.041,1.048,0.12,1.45,0.523c0.201,0.161,0.242,0.402,0.282,0.645C20.396,29.074,20.356,29.234,20.315,29.396z"/>
<path display="none" fill="#6D6E70" d="M22.61,0c-0.563,0-1.046,0.201-1.449,0.563C21,0.725,20.879,0.926,20.759,1.127
	c0,0,0,0-0.041,0.041c0,0.04,0,0.04-0.04,0l-4.269-0.645l-1.248,4.711l-0.04,0.041l-0.041,0.04H15c-2.215,0-4.188,0.443-5.839,1.45
	h-0.08C8.557,6.322,7.953,6.121,7.229,6.121c-0.765,0-1.45,0.241-2.014,0.805C5.054,7.127,4.933,7.289,4.771,7.45V7.127
	C4.53,7.57,4.369,8.054,4.369,8.657c0,0.524,0.161,1.007,0.402,1.45v0.362c0.081,0.04,0.081,0.161,0.161,0.202
	c0.323,0.401,0.645,0.684,1.047,0.885h0.081v0.081c0.04,1.611,0.926,2.939,2.618,4.067c0.362,0.241,0.724,0.482,1.087,0.645
	l0.685,0.362l-0.483,0.401c-0.362,0.242-0.604,0.403-0.725,0.524c-1.369,1.168-1.973,2.577-1.772,4.188
	c0.202,1.491,1.007,2.698,2.457,3.705h0.04c0.081,0.08,0.242,0.201,0.323,0.241c0,0,0,0.041,0.04,0.041
	c0.121,0.402,0.281,0.765,0.442,1.127v0.08c0,0,0,0.041-0.04,0.041h-0.081c-0.846,0-1.49,0.282-1.853,0.886
	c-0.282,0.322-0.403,0.726-0.322,1.167c0,0.162,0.08,0.403,0.202,0.645L8.799,30h11.879l0.081-0.242
	c0.12-0.241,0.161-0.442,0.201-0.645c0.08-0.482-0.04-0.845-0.282-1.167c-0.362-0.563-0.966-0.846-1.771-0.886h-0.041
	c-0.04,0-0.04-0.041-0.04-0.041s0-0.039,0-0.08c0.202-0.402,0.322-0.805,0.483-1.208c0-0.04,0-0.081,0-0.081l0.242-0.12
	c1.489-1.007,2.335-2.214,2.536-3.705c0.201-1.57-0.403-2.979-1.771-4.188c-0.645-0.563-0.966-0.846-0.966-0.887
	c0.482-0.2,0.765-0.321,0.885-0.401c0.363-0.162,0.726-0.403,1.088-0.645c1.731-1.168,2.617-2.618,2.617-4.27v-0.04l0.081-0.04
	c0.403-0.201,0.725-0.482,1.047-0.886c0.402-0.483,0.563-1.047,0.563-1.651c0-0.805-0.281-1.489-0.845-2.053
	c-0.564-0.564-1.249-0.846-2.055-0.846c-0.725,0-1.369,0.242-1.893,0.765l-0.08,0.04c0,0-0.041,0-0.041-0.04
	c-1.409-0.846-3.02-1.248-4.872-1.369h-0.04l-0.081-0.081c0,0,0,0,0-0.04l1.088-3.906c0-0.04,0.04-0.081,0.04-0.081
	c0.04,0,0.04,0,0.04,0l3.624,0.523c0,0,0,0,0.041,0v0.081v0.202c0,0.604,0.201,1.087,0.604,1.49
	c0.362,0.403,0.886,0.604,1.449,0.604c0.524,0,1.048-0.201,1.45-0.604s0.604-0.886,0.604-1.49c0-0.564-0.201-1.047-0.604-1.45
	C23.658,0.201,23.135,0,22.61,0z M21.121,2.014c0-0.403,0.161-0.725,0.443-1.007c0.321-0.322,0.645-0.443,1.046-0.443
	c0.403,0,0.726,0.121,1.048,0.443c0.281,0.282,0.402,0.604,0.402,1.007c0,0.402-0.121,0.765-0.402,1.087
	c-0.322,0.241-0.645,0.403-1.048,0.403c-0.401,0-0.725-0.162-1.046-0.403C21.282,2.778,21.121,2.416,21.121,2.014z M21.362,6.966
	c0.362-0.242,0.766-0.443,1.168-0.443c0.645-0.08,1.208,0.121,1.691,0.523c0.604,0.483,0.846,1.168,0.846,1.974
	c-0.04,0.321-0.161,0.685-0.322,1.007c-0.202,0.241-0.443,0.482-0.725,0.685c-0.201-0.847-0.563-1.611-1.088-2.255
	C22.49,7.853,21.967,7.369,21.362,6.966z M15,6c1.088,0,2.094,0.121,3.182,0.402c1.168,0.322,2.254,0.846,3.221,1.611
	c0.645,0.483,1.128,1.087,1.49,1.852c0.282,0.564,0.402,1.168,0.362,1.813s-0.241,1.248-0.604,1.813
	c-0.12,0.16-0.24,0.281-0.362,0.442h0.04c-0.361,0.403-0.764,0.766-1.207,1.087c-0.483,0.322-1.007,0.645-1.57,0.887
	c-1.088,0.483-2.256,0.766-3.463,0.845c-1.249,0.122-2.457,0.041-3.705-0.2c-1.289-0.242-2.417-0.806-3.503-1.531
	c-0.604-0.442-1.128-0.926-1.49-1.529c-0.322-0.523-0.523-1.007-0.604-1.53c-0.04-0.564,0-1.087,0.161-1.651
	C7.067,9.825,7.269,9.383,7.59,8.979c0.283-0.362,0.604-0.685,1.007-0.966c0.966-0.765,2.054-1.289,3.222-1.611
	C12.866,6.121,13.913,6,15,6z M4.973,9.021V8.979c0-0.644,0.201-1.127,0.645-1.57C5.98,7.007,6.463,6.765,6.986,6.685
	C7.59,6.644,8.154,6.805,8.597,7.127c-0.885,0.685-1.611,1.49-2.215,2.457C6.181,10.027,6.02,10.47,5.98,10.953
	C5.375,10.47,5.014,9.825,4.973,9.021z M9.725,18.08c0.04-0.08,0.08-0.12,0.161-0.16v0.04c-0.282,1.409-0.403,2.939-0.242,4.51
	c0.04,0.806,0.161,1.57,0.362,2.255C9.443,24.322,9,23.879,8.678,23.396c-0.283-0.523-0.443-1.087-0.524-1.69
	c-0.08-0.806,0.04-1.611,0.483-2.336C9,18.806,9.362,18.362,9.725,18.08z M11.014,17.074c0.645,0.201,1.289,0.321,1.893,0.442
	c0.563,0.04,1.208,0.081,1.973,0.121c0.604,0.04,1.289-0.081,2.135-0.202c0.483-0.08,1.047-0.201,1.691-0.361
	c0.241,0.805,0.402,1.69,0.523,2.697c0.121,1.449,0.08,2.859-0.201,4.269c-0.162,0.966-0.403,1.813-0.766,2.658
	c-0.362,0.765-0.805,1.489-1.369,2.134c-0.201,0.242-0.402,0.443-0.645,0.604h-1.932c0,0,0,0-0.041,0l0,0h-0.926
	c-0.765-0.563-1.369-1.328-1.732-2.215c-0.201-0.482-0.362-0.966-0.523-1.408c-0.201-0.564-0.323-1.088-0.443-1.691
	c-0.041-0.322-0.121-0.686-0.161-1.007c-0.041-0.685-0.081-1.369-0.041-2.094C10.45,19.57,10.651,18.282,11.014,17.074z
	 M9.121,29.396c-0.04-0.241-0.081-0.442-0.04-0.684c0.08-0.202,0.161-0.362,0.321-0.483c0.403-0.403,0.967-0.564,1.53-0.523
	c0.322,0.645,0.726,1.207,1.208,1.73L9.121,29.396z M19.832,18.121c0.483,0.402,0.886,0.845,1.088,1.248
	c0.402,0.725,0.563,1.45,0.482,2.295c-0.16,1.168-0.725,2.175-1.771,2.939c0.121-0.644,0.282-1.369,0.322-2.134
	c0.161-1.49,0.12-2.939-0.081-4.269L19.832,18.121z M20.114,28.229c0.201,0.161,0.242,0.402,0.282,0.645
	c0,0.201-0.04,0.361-0.081,0.522l-2.858,0.04c0.442-0.523,0.845-1.086,1.207-1.73C19.229,27.664,19.712,27.825,20.114,28.229
	L20.114,28.229z"/>
<path display="none" fill="#6D6E70" d="M19.107,11.315c0.322-0.282,0.443-0.644,0.443-1.047s-0.121-0.766-0.443-1.048
	c-0.282-0.281-0.604-0.402-1.006-0.402c-0.444,0-0.807,0.121-1.088,0.402c-0.281,0.282-0.403,0.645-0.403,1.048
	s0.122,0.765,0.403,1.047c0.281,0.322,0.644,0.442,1.088,0.442C18.503,11.758,18.825,11.638,19.107,11.315z"/>
<path display="none" fill="#6D6E70" d="M18.986,13.168h-0.725c-0.201,0.281-0.442,0.523-0.765,0.765c0,0.04,0,0.04-0.04,0.04
	c-0.725,0.524-1.57,0.807-2.618,0.807c-1.007,0-1.933-0.282-2.658-0.807c-0.04-0.04-0.04-0.04-0.08-0.08
	c-0.282-0.201-0.484-0.443-0.645-0.725h-0.765c0.202,0.523,0.563,0.926,1.087,1.329c0.846,0.604,1.893,0.966,3.061,0.966
	c1.208,0,2.215-0.362,3.061-0.966C18.423,14.094,18.785,13.65,18.986,13.168z"/>
<path display="none" fill="#6D6E70" d="M12.584,9.221c-0.322-0.281-0.685-0.402-1.087-0.402c-0.403,0-0.726,0.121-1.047,0.402
	c-0.282,0.282-0.403,0.645-0.403,1.048s0.121,0.765,0.403,1.047c0.322,0.322,0.645,0.442,1.047,0.442
	c0.402,0,0.765-0.12,1.087-0.442c0.282-0.282,0.443-0.644,0.443-1.047S12.866,9.503,12.584,9.221z"/>
<path display="none" fill="#6D6E70" d="M29.373,0H0.627C0.28,0,0,0.281,0,0.627v28.746C0,29.72,0.28,30,0.627,30h28.746
	C29.72,30,30,29.72,30,29.373V0.627C30,0.281,29.72,0,29.373,0z M15.001,28.746V15H1.254V1.255h13.747V15h13.744v13.746H15.001z"/>
<path display="none" fill="#6D6E70" d="M4.514,6.457v3.975H0v9.099h7.446V6.457H4.514z M4.514,17.084H2.984V12.95h1.529V17.084z"/>
<path display="none" fill="#6D6E70" d="M13.56,10.469v9.098h4.514v1.423h-4.566v2.554h6.204h1.296V10.469H13.56z M18.074,17.05
	h-1.529v-4.138h1.529V17.05z"/>
<path display="none" fill="#6D6E70" d="M22.555,10.469v9.098h4.512v1.423h-4.565v2.554h6.205H30V10.469H22.555z M27.066,17.05H25.54
	v-4.138h1.526V17.05z"/>
<rect x="8.958" y="10.414" display="none" fill="#6D6E70" width="3.038" height="9.152"/>
<rect x="8.958" y="6.618" display="none" fill="#6D6E70" width="3.038" height="2.482"/>
<path display="none" fill="#6D6E70" d="M15,0C6.716,0,0,6.718,0,15.001C0,23.285,6.716,30,15,30c8.285,0,15-6.715,15-14.999
	C30,6.718,23.285,0,15,0z M19.031,23.738c-0.618,0-4.04-0.081-4.914-0.081c-0.874,0-5.429-1.42-5.429-6.433
	c0-0.892,0-1.789-0.003-2.683c-0.003-0.833-0.021-1.664-0.023-2.491c0-0.241-0.001-0.482-0.003-0.724
	c-0.006-1.263-0.113-2.684,0.293-3.896c0.311-0.924,1.045-1.294,1.951-1.294c2.189,0,2.335,2.232,2.341,4.474h6.327
	c1.003,0,1.75,1.017,1.75,2.571c0,1.554-1.621,1.902-2.47,1.902h-5.677c-0.029,0.951-0.059,1.727-0.059,2.197
	c0,0.99,0.387,2.063,2.804,2.063h3.398c0.848,0,2.107,0.642,2.107,2.438C21.424,23.574,19.648,23.738,19.031,23.738z"/>
<path display="none" fill="#6D6E70" d="M15.001,0C6.716,0,0,6.717,0,15.001C0,23.285,6.716,30,15.001,30
	C23.285,30,30,23.285,30,15.001C30,6.717,23.285,0,15.001,0z M23.283,15.171c-0.181,0.916-0.635,1.872-1.356,2.874
	c-1.565,1.914-3.463,3.177-5.703,3.792h-0.04c-2.306,0.621-4.619,0.567-6.933-0.161c-2.019-0.762-3.65-1.979-4.879-3.662
	c1.223,0.962,2.354,1.442,3.409,1.448l0.027-0.012c1.731,0.114,3.209-0.429,4.433-1.633c0.007-0.006,0.014-0.012,0.02-0.019
	l-0.039-0.047c-0.709,0.033-1.191-0.182-1.458-0.642c-0.074-0.309,0-0.576,0.227-0.804c0.127-0.146,0.321-0.28,0.568-0.4
	c-1.25,0.033-2.111-0.4-2.601-1.309c0.375-0.402,0.855-0.596,1.438-0.563l0.007-0.02c-1.484-0.402-2.267-1.124-2.34-2.174
	c0.381-0.113,0.775-0.174,1.183-0.166v-0.021C8.088,11,7.506,10.098,7.513,8.967c1.063,0.329,2.112,0.749,3.149,1.257
	c0.95,0.401,1.771,0.814,2.473,1.249c0.596,0.336,1.09,0.75,1.505,1.245l0.02-0.021l0.107-0.078
	c0.288-1.092,0.769-2.161,1.457-3.224l0.014-0.034c0.267-0.387,0.615-0.814,1.049-1.277c0.208-0.207,0.448-0.4,0.723-0.58
	c0.054,0.033-0.026,0.22-0.241,0.567c0.576-0.488,1.124-0.734,1.631-0.748c0.114,0.113-0.086,0.334-0.601,0.648
	c0.407-0.154,0.862-0.254,1.356-0.314c0.215,0.026,0.288,0.132,0.228,0.327c-0.174,0.24-0.755,0.462-1.738,0.676
	c-0.006,0-0.013,0-0.019,0.006l0.033,0.074c1.083-0.042,2.024,0.301,2.827,1.016c0.014,0.015,0.026,0.026,0.04,0.033
	c0.949,0.917,1.498,1.926,1.651,3.036c0.843,0.301,1.691,0.295,2.555-0.028c-0.234,0.631-0.963,1.01-2.2,1.145
	c-0.008-0.008-0.008-0.008-0.008,0v0.12c1.131,0.222,1.893,0.261,2.28,0.126l0.014,0.022C25.296,14.891,24.453,15.211,23.283,15.171
	z"/>
<path display="none" fill="#6D6E70" d="M15,0C6.716,0,0,6.717,0,15.001C0,23.285,6.716,30,15,30c8.283,0,15-6.715,15-14.999
	C30,6.717,23.283,0,15,0z M18.971,14.938h-2.598c0,4.15,0,9.264,0,9.264h-3.85c0,0,0-5.061,0-9.264h-1.83v-3.271h1.83V9.548
	c0-1.517,0.72-3.884,3.885-3.884l2.851,0.01v3.177c0,0-1.732,0-2.069,0c-0.338,0-0.816,0.169-0.816,0.89v1.927h2.936L18.971,14.938z
	"/>
<path display="none" fill="#6D6E70" d="M15.001,0C6.716,0,0,6.716,0,15c0,8.285,6.716,15,15.001,15C23.284,30,30,23.285,30,15
	C30,6.716,23.284,0,15.001,0z M23.354,22.286c0,0.667-0.554,1.208-1.237,1.208H7.854c-0.684,0-1.237-0.541-1.237-1.208V7.856
	c0-0.667,0.553-1.208,1.237-1.208h14.264c0.684,0,1.237,0.541,1.237,1.208V22.286z"/>
<path display="none" fill="#6D6E70" d="M17.896,12.965c-1.342,0-1.943,0.737-2.279,1.256v0.025h-0.017
	c0.006-0.008,0.012-0.018,0.017-0.025v-1.076h-2.528c0.033,0.712,0,7.604,0,7.604h2.528v-4.247c0-0.229,0.017-0.454,0.083-0.616
	c0.183-0.454,0.6-0.926,1.297-0.926c0.916,0,1.281,0.698,1.281,1.72v4.069h2.528v-4.36C20.807,14.052,19.56,12.965,17.896,12.965z"
	/>
<path display="none" fill="#6D6E70" d="M10.443,9.477c-0.865,0-1.43,0.568-1.43,1.314c0,0.729,0.548,1.314,1.396,1.314h0.017
	c0.882,0,1.431-0.585,1.431-1.314C11.84,10.045,11.308,9.477,10.443,9.477z"/>
<rect x="9.162" y="13.145" display="none" fill="#6D6E70" width="2.529" height="7.604"/>
</svg>
