<svg class="fill-current" {{ with .size }} height="{{ . }}"{{ end }} viewBox="199 58 56 55" xmlns="http://www.w3.org/2000/svg"><g fill="none" fill-rule="evenodd"><path d="M209.488 102.41a1.132 1.132 0 0 0-1.098-1.12c-.603-.005-1.1.513-1.095 1.144a1.096 1.096 0 0 0 1.104 1.1c.599-.004 1.088-.508 1.09-1.124m43.735-22.28c-.577-.008-1.101.52-1.109 1.118a1.124 1.124 0 0 0 1.112 1.136c.61.001 1.089-.483 1.093-1.11a1.117 1.117 0 0 0-1.096-1.144M215.12 58.64c-.708-.002-1.254.551-1.254 1.27 0 .717.552 1.273 1.26 1.27.687-.004 1.224-.564 1.224-1.274 0-.716-.528-1.26-1.23-1.265m35.299 28.31c-.804-.007-1.501.705-1.494 1.526.006.811.67 1.475 1.47 1.477.842.001 1.472-.632 1.475-1.48.001-.839-.645-1.518-1.451-1.524m-23.6 24.008a1.525 1.525 0 0 0-1.509-1.543 1.517 1.517 0 0 0-1.532 1.542 1.52 1.52 0 0 0 3.04.001m-18.483-41.841c0 1.014.773 1.811 1.76 1.812.999.002 1.773-.8 1.77-1.829-.003-.997-.777-1.778-1.761-1.775-1.01.001-1.769.77-1.769 1.792m40.595 5.769c-.005-1.082-.907-2-1.968-2.008-1.084-.007-2.002.928-1.996 2.033.009 1.102.883 1.986 1.97 1.988a1.981 1.981 0 0 0 1.994-2.013m-18.948-14.75c-1.287-.007-2.335 1.044-2.342 2.347-.008 1.301 1.036 2.37 2.317 2.372 1.276 0 2.3-1.044 2.302-2.346.003-1.31-1.01-2.367-2.277-2.373M201.311 86.8c1.28.003 2.357-1.09 2.353-2.386-.006-1.298-1.06-2.375-2.33-2.38-1.302-.002-2.335 1.052-2.334 2.383 0 1.318 1.031 2.382 2.31 2.383m41.045 20.616c.001-1.345-1.103-2.47-2.43-2.474-1.361-.005-2.464 1.108-2.47 2.487-.006 1.35 1.116 2.494 2.444 2.495 1.346.002 2.453-1.13 2.456-2.508m4.353-14.16c.004 4.898-3.45 9.12-8.146 9.948a9.683 9.683 0 0 1-1.788.16c-.202-.003-.28.08-.345.269-.937 2.75-2.809 4.388-5.634 4.801-1.87.274-3.567-.238-5.054-1.433-.207-.166-.333-.169-.55-.01-1.74 1.27-3.69 1.834-5.819 1.702-4.157-.257-7.654-3.501-8.308-7.685-.045-.29-.092-.582-.097-.872-.004-.244-.095-.337-.32-.381a7.862 7.862 0 0 1-3.41-1.586c-1.853-1.484-2.966-3.42-3.223-5.814-.296-2.741.533-5.11 2.42-7.085.152-.159.161-.27.059-.456a7.816 7.816 0 0 1-1.015-4.182c.139-3.71 2.666-6.773 6.18-7.533.408-.088.621-.251.8-.644 1.734-3.816 4.644-6.136 8.683-6.902 2.836-.537 5.511.04 7.993 1.53.21.126.384.137.61.07 3.94-1.169 7.435-.32 10.401 2.561 1.753 1.703 2.715 3.858 2.999 6.317.061.538.09 1.08.051 1.621-.016.204.046.29.236.36 1.777.674 3.002 1.927 3.539 3.78.668 2.305.105 4.328-1.58 6.009-.146.146-.116.235-.032.381a10.104 10.104 0 0 1 1.35 5.074"/><path d="M229.117 92.47c.001 2.083 1.311 3.926 3.168 4.55.931.315 1.892.465 2.866.508.695.03 1.39-.02 2.033-.347.506-.257.744-.684.72-1.25-.021-.572-.272-1-.807-1.225a2.643 2.643 0 0 0-.571-.18c-.59-.106-1.184-.197-1.77-.316-.969-.197-1.376-.72-1.387-1.721-.012-.886.222-1.72.49-2.546.488-1.512 1.145-2.954 1.775-4.406.607-1.403 1.246-2.794 1.675-4.272.237-.81.35-1.624.135-2.464-.327-1.274-1.075-2.128-2.362-2.373-1.18-.225-2.355-.25-3.42.47-.356.237-.698.18-1.005-.098-.236-.21-.458-.434-.69-.65-1.088-1.027-2.526-1.077-3.694-.14-.472.379-.868.847-1.38 1.176-.458.293-.919.377-1.426.1-.483-.263-.982-.493-1.48-.725-.505-.232-.994-.52-1.562-.57-1.798-.156-3.678.935-4.472 2.594-.351.734-.638 1.497-.912 2.264-1.256 3.548-2.281 7.172-3.342 10.783-.474 1.617.085 3.207 1.425 4.08 1.046.68 2.19.848 3.375.485.96-.295 1.486-1.085 1.854-1.972 1.221-2.94 2.32-5.932 3.485-8.898.319-.815.63-1.635.97-2.442.343-.815 1.329-1.092 1.913-.552.357.33.45.769.417 1.238-.04.503-.23.965-.408 1.426-.757 1.956-1.529 3.907-2.289 5.86-.154.396-.32.788-.388 1.212-.117.728.165 1.374.748 1.631.596.262 1.213.306 1.83.078.718-.266 1.147-.84 1.478-1.503 1.135-2.278 2.262-4.562 3.396-6.84.524-1.051 1.058-2.098 1.593-3.145.199-.388.432-.756.803-.997.336-.217.697-.231 1.042-.036.335.193.358.543.344.89a1.608 1.608 0 0 1-.13.54c-.147.36-.283.726-.447 1.079-.943 2.028-1.9 4.049-2.836 6.081-.396.857-.806 1.719-.757 2.622" class="fill-current"/></g></svg>
