<?xml version="1.0" standalone="no"?>
<!DOCTYPE svg PUBLIC "-//W3C//DTD SVG 20010904//EN"
 "http://www.w3.org/TR/2001/REC-SVG-20010904/DTD/svg10.dtd">
<svg version="1.0" xmlns="http://www.w3.org/2000/svg"
 width="260.000000pt" height="260.000000pt" viewBox="0 0 260.000000 260.000000"
 preserveAspectRatio="xMidYMid meet">
<metadata>
Created by potrace 1.11, written by Peter Selinger 2001-2013
</metadata>
<g transform="translate(0.000000,260.000000) scale(0.100000,-0.100000)"
fill="#000000" stroke="none">
<path d="M0 1300 l0 -1300 1300 0 1300 0 0 1300 0 1300 -1300 0 -1300 0 0
-1300z m1138 203 l157 -271 3 274 2 274 90 0 90 0 0 -480 0 -480 -99 0 -99 0
-184 318 -183 317 -3 -317 -2 -318 -85 0 -85 0 0 480 0 481 121 -3 121 -3 156
-272z m1027 252 c71 -26 115 -56 164 -112 88 -99 125 -214 119 -363 -10 -209
-110 -366 -275 -431 -53 -21 -79 -23 -280 -27 l-223 -4 0 482 0 482 223 -4
c181 -4 231 -8 272 -23z m-1705 -115 l0 -110 75 0 75 0 0 -80 0 -80 -75 0 -75
0 0 -174 c0 -214 2 -218 104 -224 l66 -4 0 -73 0 -73 -31 -6 c-67 -13 -203 -6
-245 13 -88 40 -104 94 -104 356 l0 185 -55 0 -55 0 0 80 0 79 63 3 c58 3 62
5 64 28 1 14 5 60 8 102 l7 77 31 4 c18 2 58 5 90 5 l57 2 0 -110z"/>
<path d="M1890 1300 l0 -300 63 0 c125 0 184 36 233 142 26 56 29 74 29 163 0
88 -3 107 -26 155 -52 107 -104 140 -224 140 l-75 0 0 -300z"/>
</g>
</svg>
