<?xml version="1.0" encoding="utf-8"?>
<!-- Generator: Adobe Illustrator 18.1.1, SVG Export Plug-In . SVG Version: 6.00 Build 0)  -->
<!DOCTYPE svg PUBLIC "-//W3C//DTD SVG 1.1//EN" "http://www.w3.org/Graphics/SVG/1.1/DTD/svg11.dtd">
<svg version="1.1" id="Layer_1" xmlns="http://www.w3.org/2000/svg" xmlns:xlink="http://www.w3.org/1999/xlink" x="0px" y="0px"
	 width="123px" height="78.543px" viewBox="0 0 123 78.543" style="enable-background:new 0 0 123 78.543;" xml:space="preserve">
<style type="text/css">
	.st0{fill:#FFFFFF;}
</style>
<g>
	<g>
		<polygon class="st0" points="35.057,78.543 35.057,63.937 15.107,63.937 15.107,78.543 12.791,78.543 12.791,47.37 15.107,47.37 
			15.107,61.799 35.057,61.799 35.057,47.37 37.373,47.37 37.373,78.543 35.057,78.543 		"/>
	</g>
	<g>
		<path class="st0" d="M60.663,49.686L52.424,67.72h16.433L60.663,49.686L60.663,49.686z M73.8,78.543l-3.963-8.73H51.446
			l-3.964,8.73h-2.405l14.517-31.396h2.227l14.517,31.396H73.8L73.8,78.543z"/>
	</g>
	<g>
		<polygon class="st0" points="84.043,78.543 84.043,47.37 86.359,47.37 86.359,76.405 95.598,76.405 95.598,78.543 84.043,78.543 
					"/>
	</g>
	<g>
		<polygon class="st0" points="108.18,78.543 108.18,47.37 110.496,47.37 110.496,76.405 119.734,76.405 119.734,78.543 
			108.18,78.543 		"/>
	</g>
	<g>
		<g>
			<path class="st0" d="M0,16.211v-0.089C0,7.304,6.591,0,15.587,0c5.567,0,8.907,2.049,12.113,4.988l-1.648,1.692
				c-2.717-2.628-5.834-4.588-10.51-4.588c-7.482,0-13.138,6.102-13.138,13.94v0.089c0,7.882,5.745,14.029,13.183,14.029
				c4.498,0,7.571-1.737,10.733-4.854l1.558,1.514c-3.295,3.251-6.858,5.433-12.38,5.433C6.591,32.244,0,25.163,0,16.211z"/>
		</g>
		<g>
			<path class="st0" d="M35.67,0.534h2.316v31.175H35.67V0.534z"/>
		</g>
		<g>
			<path class="st0" d="M46.002,0.534h2.583l12.203,28.681L73.034,0.534h2.45L61.767,31.932h-2.049L46.002,0.534z"/>
		</g>
		<g>
			<path class="st0" d="M83.498,0.534h2.316v31.175h-2.316V0.534z"/>
		</g>
		<g>
			<path class="st0" d="M95.121,16.211v-0.089C95.121,7.304,101.712,0,110.708,0c5.567,0,8.907,2.049,12.114,4.988l-1.648,1.692
				c-2.717-2.628-5.835-4.588-10.511-4.588c-7.482,0-13.138,6.102-13.138,13.94v0.089c0,7.882,5.746,14.029,13.183,14.029
				c4.498,0,7.571-1.737,10.733-4.854L123,26.81c-3.295,3.251-6.858,5.433-12.381,5.433C101.712,32.244,95.121,25.163,95.121,16.211
				z"/>
		</g>
	</g>
	<g>
		<path class="st0" d="M122.432,40.339H71.194v-0.47h51.238V40.339z M51.432,40.339H0.194v-0.47h51.239V40.339z"/>
	</g>
	<g>
		<g>
			<path class="st0" d="M63.365,41.665h-1.393l-0.325,1.901H61.16l0.325-1.901H59.38l-0.325,1.901h-0.488l0.325-1.901h-1.23v-0.478
				h1.311l0.407-2.399h-1.311v-0.478h1.393l0.325-1.86h0.488l-0.315,1.86h2.105l0.315-1.86h0.488l-0.326,1.86h1.231v0.478h-1.311
				l-0.407,2.399h1.312V41.665z M59.462,41.188h2.104l0.407-2.399h-2.104L59.462,41.188z"/>
		</g>
	</g>
</g>
</svg>
