<svg width="213" height="213" viewBox="0 0 213 213" xmlns="http://www.w3.org/2000/svg"><title>Desktop HD</title><g fill-rule="nonzero" fill="#f9f9f9"><path d="M76.9022764 151.3985366v-16.6247155H54.1949593v16.6247155h-2.6360975v-35.4814634h2.6360975v16.423252h22.7073171v-16.423252h2.6360976v35.4814634M106.0473171 118.5531707l-9.3777236 20.5265041h18.7042276l-9.326504-20.5265041zM121 151.3985366l-4.5107317-9.9365854H95.5564228l-4.51187 9.9365854h-2.7373983l16.5234146-35.7352846h2.5347968l16.5234146 35.7352846H121zM132.6586992 151.3985366v-35.4814634h2.6360975v33.0479675h10.5159353v2.4334959M160.131707 151.3985366v-35.4814634h2.636098v33.0479675h10.514797v2.4334959M37 80.4515447v-.1013008C37 70.31349593 44.50195122 62 54.7413008 62c6.3364228 0 10.1380488 2.33219512 13.7871545 5.67739837l-1.8757724 1.92585366c-3.0925203-2.9912195-6.6403252-5.22211382-11.9626016-5.22211382-8.51609756 0-14.95382114 6.94536587-14.95382114 15.8666667v.1013008c0 8.9713821 6.5390244 15.9679675 15.00504064 15.9679675 5.1196748 0 8.6173984-1.9770732 12.2164228-5.5248781l1.7733333 1.7232521C64.9806504 96.2157724 60.9252033 98.6993496 54.64 98.6993496 44.50195122 98.7004878 37 90.640813 37 80.4515447zM77.6 62.60780488h2.6360976V98.0915447H77.6M89.36 62.60780488h2.94l13.8895935 32.64504062 13.9385366-32.64504062h2.7886179L107.3039024 98.3453659h-2.3321951M132.038374 62.60780488h2.6360975V98.0915447h-2.6360975M145.267805 80.4515447v-.1013008C145.267805 70.31349593 152.769756 62 163.009106 62c6.336422 0 10.138048 2.33219512 13.788292 5.67739837l-1.875772 1.92585366c-3.09252-2.9912195-6.641463-5.22211382-11.96374-5.22211382-8.516097 0-14.953821 6.94536587-14.953821 15.8666667v.1013008c0 8.9713821 6.540163 15.9679675 15.005041 15.9679675 5.119674 0 8.617398-1.9770732 12.216422-5.5248781L177 92.5154472c-3.750407 3.7003252-7.805854 6.1839024-14.092195 6.1839024-10.138049.0011382-17.64-8.0585366-17.64-18.2478049zM176.353496 107.9143089h-58.3196749v-.5349593h58.3196749v.5349593zm-80.8130082 0H37.220813v-.5349593h58.320813v.5349593h-.0011382zM109.1227642 109.4235772h-1.5855284l-.3699187 2.1637399h-.554309l.3699187-2.1637399h-2.3959349l-.3699187 2.1637399h-.5554472l.3699187-2.1637399h-1.4v-.544065h1.4921951l.4632521-2.7305691h-1.4921952v-.5440651h1.5855285l.3699187-2.1170731h.5554472l-.3585366 2.1170731h2.3959349l.3585366-2.1170731h.5554472l-.3710569 2.1170731h1.4011382v.5440651h-1.4921952l-.463252 2.7305691h1.4933334v.544065h-.0022765zm-4.442439-.5429268h2.3947968l.463252-2.7305691h-2.3947968l-.463252 2.7305691z"/></g></svg>
