<?xml version="1.0" standalone="no"?>
<!DOCTYPE svg PUBLIC "-//W3C//DTD SVG 20010904//EN"
 "http://www.w3.org/TR/2001/REC-SVG-20010904/DTD/svg10.dtd">
<svg version="1.0" xmlns="http://www.w3.org/2000/svg"
 width="16.000000pt" height="16.000000pt" viewBox="0 0 16.000000 16.000000"
 preserveAspectRatio="xMidYMid meet">
<metadata>
Created by potrace 1.11, written by Peter Selinger 2001-2013
</metadata>
<g transform="translate(0.000000,16.000000) scale(0.006154,-0.006154)"
fill="#000000" stroke="none">
<path d="M0 1300 l0 -1300 1300 0 1300 0 0 1300 0 1300 -1300 0 -1300 0 0
-1300z m643 626 c20 -8 53 -26 73 -41 28 -21 33 -30 23 -41 -9 -11 -17 -9 -46
13 -51 39 -123 55 -186 41 -68 -14 -139 -81 -157 -148 -30 -112 15 -225 109
-272 83 -42 162 -35 232 22 31 24 39 27 48 16 9 -11 4 -20 -24 -44 -45 -36
-95 -52 -170 -52 -202 0 -315 238 -194 414 60 88 188 129 292 92z m1538 2 c45
-15 109 -56 109 -68 0 -22 -31 -21 -62 4 -101 77 -254 40 -312 -75 -60 -121
-15 -269 99 -320 73 -34 180 -15 241 42 18 17 23 18 33 5 10 -12 6 -19 -22
-40 -52 -40 -101 -56 -169 -56 -78 0 -131 23 -179 77 -102 113 -89 301 26 389
67 51 162 68 236 42z m-1263 -250 c-3 -232 -4 -253 -20 -256 -17 -3 -18 14
-18 252 0 250 0 256 20 256 20 0 20 -5 18 -252z m273 17 l97 -230 24 55 c14
30 58 135 99 232 56 134 78 178 92 178 9 0 17 -3 17 -7 0 -5 -48 -119 -107
-256 -88 -201 -111 -247 -126 -245 -13 2 -45 66 -121 238 -130 299 -120 272
-94 268 18 -2 38 -42 119 -233z m507 -17 c-3 -232 -4 -253 -20 -256 -17 -3
-18 14 -18 252 0 250 0 256 20 256 20 0 20 -5 18 -252z m-402 -358 c8 0 14 6
14 13 0 8 3 7 9 -3 14 -20 5 -28 -24 -22 -20 3 -25 0 -25 -17 0 -12 6 -21 15
-21 8 0 15 5 15 10 0 6 6 5 14 -2 19 -18 4 -25 -40 -20 -22 3 -31 7 -24 12 7
4 10 17 7 29 -3 12 -1 21 4 21 5 0 10 8 10 18 1 16 2 16 6 0 2 -10 11 -18 19
-18z m-368 -37 c-115 -2 -301 -2 -415 0 -115 1 -21 2 207 2 228 0 322 -1 208
-2z m1160 0 c-114 -2 -303 -2 -420 0 -117 1 -24 2 207 2 231 0 327 -1 213 -2z
m-1538 -228 l0 -115 160 0 160 0 0 115 c0 108 1 115 20 115 19 0 20 -7 20
-255 0 -248 -1 -255 -20 -255 -19 0 -20 7 -20 120 l0 120 -160 0 -159 0 -3
-117 c-3 -103 -5 -118 -20 -121 -17 -3 -18 14 -18 252 0 249 1 256 20 256 19
0 20 -7 20 -115z m871 -131 c63 -136 116 -251 117 -255 2 -5 -5 -9 -16 -9 -15
0 -28 17 -53 70 l-32 70 -152 0 -152 0 -31 -70 c-20 -45 -37 -70 -47 -70 -9 0
-15 6 -13 15 2 8 53 122 113 254 92 202 113 241 131 241 18 0 39 -38 135 -246z
m279 11 l0 -235 75 0 c68 0 75 -2 75 -20 0 -19 -7 -20 -90 -20 l-90 0 0 255
c0 220 2 255 15 255 13 0 15 -33 15 -235z m400 0 l0 -235 76 0 c66 0 75 -2 72
-17 -3 -15 -17 -18 -96 -21 l-92 -3 0 256 c0 248 1 255 20 255 19 0 20 -7 20
-235z"/>
<path d="M1222 992 c-34 -75 -62 -140 -62 -144 0 -5 58 -8 129 -8 l130 0 -64
141 c-36 78 -66 143 -68 145 -1 2 -31 -58 -65 -134z"/>
</g>
</svg>
