<?xml version="1.0" standalone="no"?>
<!DOCTYPE svg PUBLIC "-//W3C//DTD SVG 20010904//EN"
 "http://www.w3.org/TR/2001/REC-SVG-20010904/DTD/svg10.dtd">
<svg version="1.0" xmlns="http://www.w3.org/2000/svg"
 width="512.000000pt" height="512.000000pt" viewBox="0 0 512.000000 512.000000"
 preserveAspectRatio="xMidYMid meet">
<metadata>
Created by potrace 1.11, written by Peter Selinger 2001-2013
</metadata>
<g transform="translate(0.000000,512.000000) scale(0.100000,-0.100000)"
fill="#000000" stroke="none">
<path d="M1434 3841 c-2 -2 -4 -528 -4 -1168 l0 -1163 200 0 200 0 0 843 0
842 181 -430 c99 -236 186 -443 194 -460 7 -16 52 -122 99 -235 47 -113 119
-284 159 -380 l74 -175 230 -3 230 -2 0 1167 0 1168 -193 0 c-106 0 -196 -3
-200 -7 -4 -4 -7 -328 -7 -720 l0 -713 -24 55 c-14 30 -48 111 -75 180 -28 69
-59 143 -68 165 -18 40 -116 277 -299 725 -55 135 -109 261 -118 280 l-18 35
-278 0 c-153 0 -280 -2 -283 -4z"/>
<path d="M3184 3841 c-2 -2 -4 -528 -4 -1168 l0 -1164 438 4 c453 4 465 5 572
38 160 50 272 130 376 267 122 160 191 344 232 617 9 66 9 443 -1 520 -12 94
-18 127 -29 170 -5 22 -12 48 -14 59 -13 66 -73 208 -119 280 -108 169 -286
291 -500 342 -46 11 -122 24 -180 30 -75 8 -763 13 -771 5z m751 -413 c187
-42 288 -199 322 -498 15 -125 6 -531 -12 -559 -2 -4 -6 -26 -10 -50 -9 -61
-48 -173 -78 -223 -80 -134 -182 -185 -369 -186 l-98 0 0 763 c0 495 3 765 10
767 21 7 187 -3 235 -14z"/>
<path d="M797 3823 c-1 -1 -56 -6 -122 -13 -165 -16 -175 -17 -179 -21 -4 -4
-16 -122 -21 -210 -2 -30 -6 -95 -10 -145 -7 -79 -9 -102 -14 -139 0 -6 -42
-10 -106 -9 l-105 0 0 -188 c0 -172 1 -188 18 -189 9 -1 52 0 95 0 l77 2 0
-453 c1 -249 3 -475 5 -502 10 -114 52 -226 110 -293 91 -106 304 -157 540
-128 39 5 75 10 80 10 6 1 25 5 43 9 l32 8 0 181 0 182 -109 1 c-165 1 -218
36 -227 150 -4 49 -7 669 -5 795 l1 36 128 1 c70 0 141 1 158 1 l30 1 -1 183
c-1 100 -3 185 -4 188 0 3 -71 5 -156 5 -148 -1 -155 0 -156 19 0 11 -1 134
-1 273 l0 253 -50 -3 c-27 -2 -50 -4 -51 -5z"/>
</g>
</svg>
