<?xml version="1.0" standalone="no"?>
<!DOCTYPE svg PUBLIC "-//W3C//DTD SVG 20010904//EN"
 "http://www.w3.org/TR/2001/REC-SVG-20010904/DTD/svg10.dtd">
<svg version="1.0" xmlns="http://www.w3.org/2000/svg"
 width="266.000000pt" height="266.000000pt" viewBox="0 0 266.000000 266.000000"
 preserveAspectRatio="xMidYMid meet">
<metadata>
Created by potrace 1.11, written by Peter Selinger 2001-2013
</metadata>
<g transform="translate(0.000000,266.000000) scale(0.100000,-0.100000)"
fill="#000000" stroke="none">
<path d="M570 1355 l0 -705 120 0 120 0 2 505 3 505 211 -502 211 -503 141 -3
142 -3 -2 703 -3 703 -117 3 -118 3 -1 -433 c0 -311 -3 -429 -11 -417 -6 8
-88 202 -182 430 l-171 414 -173 3 -172 2 0 -705z"/>
<path d="M1630 1355 l0 -707 283 4 c307 5 336 9 435 72 192 121 292 409 262
751 -28 322 -150 491 -405 561 -46 12 -122 18 -317 21 l-258 5 0 -707z m488
441 c50 -17 109 -82 131 -142 30 -78 44 -213 38 -344 -6 -135 -20 -205 -53
-277 -47 -98 -125 -143 -249 -143 l-45 0 0 460 0 460 73 -1 c39 0 87 -6 105
-13z"/>
<path d="M305 1835 c-5 -2 -49 -6 -96 -10 l-87 -7 -6 -106 c-11 -167 -9 -162
-67 -162 l-49 0 0 -100 0 -100 44 0 45 0 3 -272 c3 -264 4 -275 27 -321 13
-26 38 -59 55 -72 49 -38 147 -59 234 -51 107 10 102 4 102 111 l0 93 -66 4
c-105 7 -104 3 -104 279 l0 229 80 0 80 0 0 100 0 100 -80 0 -79 0 -3 142 c-3
134 -7 152 -33 143z"/>
</g>
</svg>
