<?xml version="1.0" standalone="no"?>
<!DOCTYPE svg PUBLIC "-//W3C//DTD SVG 20010904//EN"
 "http://www.w3.org/TR/2001/REC-SVG-20010904/DTD/svg10.dtd">
<svg version="1.0" xmlns="http://www.w3.org/2000/svg"
 width="260.000000pt" height="260.000000pt" viewBox="0 0 260.000000 260.000000"
 preserveAspectRatio="xMidYMid meet">
<metadata>
Created by potrace 1.11, written by Peter Selinger 2001-2013
</metadata>
<g transform="translate(0.000000,260.000000) scale(0.100000,-0.100000)"
fill="#000000" stroke="none">
<path d="M90 1345 l0 -765 24 0 23 0 1 718 c0 394 1 726 1 736 1 12 65 -66
164 -200 90 -120 337 -452 551 -737 l387 -519 312 5 c264 4 325 7 397 24 397
93 597 357 585 773 -6 185 -54 330 -152 455 -97 124 -276 224 -449 251 -21 3
-59 9 -84 14 -24 5 -167 9 -317 10 l-273 1 0 -731 c0 -401 -3 -730 -7 -730 -5
0 -15 11 -23 25 -8 13 -253 342 -544 730 -515 685 -531 705 -563 705 l-33 0 0
-765z m1813 701 c289 -55 481 -215 552 -460 22 -76 24 -92 29 -216 6 -190 -38
-348 -134 -472 -103 -136 -230 -208 -445 -253 -61 -13 -141 -18 -337 -20
l-258 -2 0 722 0 722 253 -2 c186 -2 275 -7 340 -19z"/>
</g>
</svg>
