<svg id="Layer_1" xmlns="http://www.w3.org/2000/svg" width="123" height="78.543" viewBox="0 0 123 78.543"><style>.st0{fill:#111;}</style><path class="st0" d="M35.057 78.543V63.937h-19.95v14.606h-2.316V47.37h2.316v14.429h19.95V47.37h2.316v31.173h-2.316zM60.663 49.686L52.424 67.72h16.433l-8.194-18.034zM73.8 78.543l-3.963-8.73H51.446l-3.964 8.73h-2.405l14.517-31.396h2.227l14.517 31.396H73.8zM84.043 78.543V47.37h2.316v29.035h9.239v2.138H84.043zM108.18 78.543V47.37h2.316v29.035h9.238v2.138H108.18zM0 16.211v-.089C0 7.304 6.591 0 15.587 0c5.567 0 8.907 2.049 12.113 4.988L26.052 6.68c-2.717-2.628-5.834-4.588-10.51-4.588-7.482 0-13.138 6.102-13.138 13.94v.089c0 7.882 5.745 14.029 13.183 14.029 4.498 0 7.571-1.737 10.733-4.854l1.558 1.514c-3.295 3.251-6.858 5.433-12.38 5.433C6.591 32.244 0 25.163 0 16.211zM35.67.534h2.316v31.175H35.67V.534zM46.002.534h2.583l12.203 28.681L73.034.534h2.45L61.767 31.932h-2.049L46.002.534zM83.498.534h2.316v31.175h-2.316V.534zM95.121 16.211v-.089C95.121 7.304 101.712 0 110.708 0c5.567 0 8.907 2.049 12.114 4.988l-1.648 1.692c-2.717-2.628-5.835-4.588-10.511-4.588-7.482 0-13.138 6.102-13.138 13.94v.089c0 7.882 5.746 14.029 13.183 14.029 4.498 0 7.571-1.737 10.733-4.854L123 26.81c-3.295 3.251-6.858 5.433-12.381 5.433-8.907.001-15.498-7.08-15.498-16.032z"/><g><path class="st0" d="M122.432 40.339H71.194v-.47h51.238v.47zm-71 0H.194v-.47h51.239v.47z"/></g><g><path class="st0" d="M63.365 41.665h-1.393l-.325 1.901h-.487l.325-1.901H59.38l-.325 1.901h-.488l.325-1.901h-1.23v-.478h1.311l.407-2.399h-1.311v-.478h1.393l.325-1.86h.488l-.315 1.86h2.105l.315-1.86h.488l-.326 1.86h1.231v.478h-1.311l-.407 2.399h1.312v.478zm-3.903-.477h2.104l.407-2.399h-2.104l-.407 2.399z"/></g></svg>
